<?xml version="1.0" encoding="UTF-8" standalone="no"?>
<svg
   xmlns:dc="http://purl.org/dc/elements/1.1/"
   xmlns:cc="http://creativecommons.org/ns#"
   xmlns:rdf="http://www.w3.org/1999/02/22-rdf-syntax-ns#"
   xmlns:svg="http://www.w3.org/2000/svg"
   xmlns="http://www.w3.org/2000/svg"
   id="svg8"
   version="1.1"
   viewBox="0 0 33.500797 9.7364168"
   height="9.7364168mm"
   width="33.500797mm">
  <defs
     id="defs2" />
  <metadata
     id="metadata5">
    <rdf:RDF>
      <cc:Work
         rdf:about="">
        <dc:format>image/svg+xml</dc:format>
        <dc:type
           rdf:resource="http://purl.org/dc/dcmitype/StillImage" />
        <dc:title></dc:title>
      </cc:Work>
    </rdf:RDF>
  </metadata>
  <g
     transform="translate(-32.395422,-68.083723)"
     id="layer1">
    <g
       id="g834">
      <path
         id="path819"
         style="font-style:normal;font-weight:normal;font-size:5.64444447px;line-height:125%;font-family:Sans;letter-spacing:0px;word-spacing:0px;fill:none;fill-opacity:1;stroke:#366f9e;stroke-width:0.30000001;stroke-linecap:round;stroke-linejoin:round;stroke-miterlimit:4;stroke-dasharray:none;stroke-opacity:1"
         d="m 33.691756,69.083723 0.254,0.02117 q 0.306916,0.02117 0.635,0.04233 0.328083,0.02117 0.635,0.02117 h 0.01058 q 0.02117,0.02117 0.02117,0.04233 v 0.01058 q 0.04233,-0.0635 0.09525,-0.05292 h 0.01058 v 0.01058 q 0.01058,0.05292 0.01058,0.09525 0,0.04233 0,0.08467 0,0.105834 -0.01058,0.211667 0,0.105833 -0.01058,0.201083 -0.03175,0.211667 -0.03175,0.41275 0,0.0635 0,0.127 0,0.05292 0.01058,0.116417 -0.01058,0.08467 -0.02117,0.179917 0,0.09525 0,0.179916 0,0.518584 0.169334,0.994834 0.04233,-0.04233 0.07408,-0.02117 0.01058,0 0.03175,0.02117 0.381,-0.0635 0.6985,0.08467 0.275167,0.0635 0.497417,0.264584 0.22225,0.1905 0.402167,0.402167 l 0.0635,0.0635 q 0.275166,0.455083 0.275166,1.185333 0,0.306917 -0.04233,0.613833 -0.04233,0.306917 -0.09525,0.60325 -0.02117,0.455084 -0.3175,0.8255 -0.28575,0.359834 -0.762,0.529167 -0.243417,0.08467 -0.529167,0.05292 -0.275167,-0.03175 -0.529167,-0.169334 0.01058,0.01058 0.01058,0.03175 0,0.02117 -0.01058,0.04233 0,0.01058 0,0.03175 0,0.02117 -0.01058,0.03175 0,0.01058 0,0.03175 0,0.04233 0.03175,0.08467 v 0.01058 q 0.01058,0 0.01058,0.02117 0,0.05292 -0.07408,0.0635 v 0.01058 q -0.116417,-0.02117 -0.22225,-0.03175 -0.105833,0 -0.22225,0 -0.08467,-0.01058 -0.179917,-0.01058 -0.09525,0 -0.179916,-0.01058 -0.07408,0 -0.148167,0 -0.0635,0 -0.137583,-0.01058 -0.148167,0 -0.28575,0 -0.127,0.01058 -0.254,0.04233 h -0.01058 v -0.01058 q -0.03175,-0.03175 -0.03175,-0.0635 0,-0.03175 0.02117,-0.07408 0,-0.01058 0,-0.02117 0.01058,-0.01058 0.01058,-0.03175 0,-0.02117 -0.01058,-0.03175 l -0.01058,-0.01058 h 0.01058 q 0.01058,-0.05292 0.01058,-0.08467 0.01058,-0.04233 0.01058,-0.09525 0,-0.04233 -0.01058,-0.08467 0,-0.04233 0,-0.09525 -0.01058,-0.05292 -0.02117,-0.09525 0,-0.04233 0,-0.09525 -0.01058,-0.105833 -0.02117,-0.201083 -0.01058,-0.105834 -0.03175,-0.201084 -0.02117,-0.169333 -0.04233,-0.338666 -0.02117,-0.169334 -0.04233,-0.34925 0.01058,-0.105834 0.01058,-0.201084 0.01058,-0.09525 0.01058,-0.201083 v -0.1905 l -0.01058,-0.232833 q 0,-0.07408 -0.01058,-0.137584 0,-0.07408 0,-0.15875 0,-0.169333 0.01058,-0.338666 0.01058,-0.169334 0.03175,-0.34925 0.02117,-0.15875 0.03175,-0.3175 0.01058,-0.169334 0.01058,-0.338667 l 0.01058,-0.41275 q 0,-0.497417 0.01058,-0.963084 0.02117,-0.465666 0.09525,-0.931333 0.03175,-0.116417 0.04233,-0.243417 0.01058,-0.127 0.02117,-0.264583 0.01058,-0.07408 0.01058,-0.148167 0,-0.07408 0.01058,-0.15875 z m -0.01058,7.228417 q 0.02117,-0.02117 0.02117,-0.04233 0,-0.02117 0.01058,-0.05292 0,-0.0635 0.02117,-0.07408 0.02117,-0.01058 0.0635,-0.01058 0.02117,-0.04233 0.02117,-0.08467 0,-0.04233 -0.01058,-0.0635 -0.05292,-0.338666 -0.08467,-0.687916 -0.02117,-0.34925 -0.02117,-0.709084 0,-0.275166 0.01058,-0.53975 0.01058,-0.275166 0.02117,-0.550333 0.01058,-0.275167 0.02117,-0.529167 0.01058,-0.254 0.01058,-0.508 0,-0.07408 0,-0.137583 0,-0.07408 -0.01058,-0.148167 0.04233,-0.486833 0.0635,-0.98425 0.02117,-0.402167 0.04233,-0.772583 0.02117,-0.370417 0.07408,-0.751417 -0.03175,-0.03175 -0.0635,-0.07408 -0.02117,-0.05292 -0.04233,-0.105834 -0.02117,-0.03175 -0.03175,-0.0635 -0.01058,-0.03175 -0.03175,-0.05292 0,0.1905 -0.03175,0.370416 -0.02117,0.169334 -0.05292,0.34925 -0.03175,0.179917 -0.0635,0.359834 -0.02117,0.169333 -0.02117,0.34925 v 0.08467 q 0.01058,0.07408 0.01058,0.148167 0,0.0635 0,0.137583 0,0.370417 -0.02117,0.73025 -0.01058,0.359834 -0.03175,0.719667 -0.02117,0.338667 -0.04233,0.6985 -0.02117,0.34925 -0.02117,0.709084 0,0.169333 0,0.338666 0.01058,0.15875 0.02117,0.328084 0,0.03175 -0.01058,0.0635 0,0.02117 0,0.05292 0,0.03175 0.02117,0.116417 0.01058,0.264583 0.08467,0.560917 0.02117,0.169333 0.04233,0.338666 0.03175,0.169334 0.03175,0.34925 z m 0.53975,-7.069667 q -0.105833,-0.02117 -0.211666,-0.03175 -0.09525,-0.01058 -0.1905,0 0.03175,0.07408 0.07408,0.148166 0.04233,0.07408 0.09525,0.15875 0,0.01058 0.01058,0.02117 0.01058,0.01058 0.01058,0.02117 0,0 0.01058,0.01058 0.05292,0 0.105833,0 0.0635,0 0.116417,0.01058 0.15875,0.02117 0.3175,0.02117 0.15875,-0.01058 0.28575,-0.0635 l 0.01058,-0.01058 0.01058,0.01058 q 0.08467,0.05292 0.137583,0.01058 0.05292,-0.05292 0.105833,-0.137583 0.03175,-0.0635 0.07408,-0.105833 -0.02117,0 -0.0635,-0.01058 -0.03175,-0.01058 -0.07408,-0.02117 l -0.105833,-0.02117 q -0.179917,0.03175 -0.359833,0.02117 -0.179917,-0.01058 -0.359834,-0.03175 z m 0.677334,0.433916 q -0.03175,0.01058 -0.08467,0.01058 -0.09525,0.03175 -0.201083,0.03175 -0.09525,-0.01058 -0.201084,-0.02117 -0.09525,-0.01058 -0.179916,-0.01058 -0.08467,0 -0.169334,0.02117 -0.05292,0.296334 -0.08467,0.592667 -0.02117,0.296333 -0.04233,0.592667 l -0.01058,0.02117 q 0,0.34925 -0.02117,0.709084 -0.01058,0.359833 -0.03175,0.740833 -0.02117,0.465667 -0.04233,0.931334 -0.01058,0.455083 -0.01058,0.92075 0,0.306916 0.01058,0.60325 0.01058,0.296333 0.03175,0.582083 l 0.02117,0.148167 q 0.01058,0.105833 0.02117,0.211666 0.01058,0.09525 0.03175,0.1905 0.01058,0.03175 0.01058,0.105834 0,0.0635 0.01058,0.09525 0.105833,-0.01058 0.232833,0.02117 0.04233,0 0.148167,0.02117 0.05292,-0.02117 0.116417,-0.01058 0.0635,0 0.116416,0.01058 0.08467,0.01058 0.15875,0.01058 0.07408,0 0.137584,-0.03175 v -0.07408 q 0.01058,-0.03175 0.01058,-0.116417 0,-0.04233 -0.01058,-0.07408 -0.01058,-0.04233 -0.05292,-0.0635 h -0.01058 v -0.01058 q 0.03175,-0.07408 0.07408,-0.105834 h 0.01058 q 0.08467,0 0.148167,0.04233 0.07408,0.03175 0.127,0.07408 0.05292,0.03175 0.09525,0.0635 0.05292,0.02117 0.105833,0.04233 h 0.01058 q 0.169333,0.09525 0.391583,0.105834 0.232833,0.01058 0.4445,-0.0635 h 0.01058 q 0.254,-0.0635 0.41275,-0.232834 0.15875,-0.169333 0.243417,-0.381 0.09525,-0.22225 0.137584,-0.455083 0.04233,-0.243417 0.07408,-0.455083 0.01058,-0.08467 0.01058,-0.169334 0.01058,-0.09525 0.02117,-0.1905 0.02117,-0.137583 0.03175,-0.275166 0.01058,-0.148167 0.01058,-0.296334 0,-0.243416 -0.05292,-0.47625 -0.05292,-0.232833 -0.211667,-0.41275 -0.22225,-0.264583 -0.508,-0.391583 -0.275167,-0.127 -0.550334,-0.09525 l -0.15875,0.03175 q -0.116416,0.02117 -0.232833,0.05292 -0.105833,0.03175 -0.1905,0.09525 l -0.01058,0.01058 q -0.02117,-0.01058 -0.0635,0.01058 -0.02117,0.01058 -0.05292,0.02117 -0.02117,0 -0.05292,-0.04233 l -0.01058,-0.01058 q 0.01058,-0.05292 0.01058,-0.09525 0.01058,-0.04233 0.01058,-0.09525 0,-0.148167 -0.03175,-0.28575 -0.02117,-0.137583 -0.04233,-0.28575 l -0.0635,-0.381 q 0,-0.05292 -0.01058,-0.116417 0,-0.0635 0,-0.127 0,-0.137583 0.01058,-0.264583 0.01058,-0.137583 0.03175,-0.275167 0.03175,-0.264583 0.03175,-0.518583 0,-0.04233 0,-0.08467 0,-0.04233 -0.01058,-0.08467 -0.02117,-0.04233 -0.05292,-0.04233 -0.02117,0 -0.05292,0 z m -0.66675,6.614584 q -0.09525,-0.01058 -0.1905,-0.02117 -0.09525,-0.01058 -0.179917,0.01058 -0.05292,0.01058 -0.08467,0.04233 -0.02117,0.02117 -0.05292,0.0635 -0.01058,0.02117 -0.03175,0.04233 0.254,0 0.486833,0.01058 0.243417,0 0.486833,0.01058 h 0.402167 q -0.01058,-0.04233 -0.09525,-0.105833 -0.05292,-0.01058 -0.105833,-0.01058 -0.05292,0 -0.105834,-0.01058 -0.05292,0 -0.116416,0 -0.05292,-0.01058 -0.105834,-0.01058 -0.0635,0 -0.148166,0 -0.07408,-0.01058 -0.15875,-0.02117 z m 0.751416,-0.09525 q 0.02117,0.02117 0.03175,0.03175 0.02117,0 0.04233,0.02117 0.01058,0.01058 0.02117,0.02117 0.01058,0 0.02117,0.01058 0,-0.0635 -0.03175,-0.127 -0.02117,-0.0635 -0.08467,-0.105834 z m 0.264584,-6.783917 q -0.02117,0.04233 -0.05292,0.09525 -0.03175,0.04233 -0.04233,0.04233 0,0.02117 0,0.03175 0.01058,0 0.01058,0.02117 0,0.137583 -0.02117,0.275167 -0.01058,0.137583 -0.03175,0.275166 -0.02117,0.137584 -0.03175,0.275167 -0.01058,0.137583 -0.01058,0.28575 v 0.179917 0.07408 q 0,0.148167 0.02117,0.296333 0.03175,0.137584 0.05292,0.28575 0.02117,0.148167 0.04233,0.28575 0.03175,0.137584 0.03175,0.285751 v 0.04233 q 0.02117,-0.04233 0.05292,-0.07408 0.04233,-0.05292 0.07408,-0.09525 0.03175,-0.04233 0.05292,-0.09525 0,0 -0.02117,-0.02117 -0.01058,-0.01058 -0.02117,-0.01058 l -0.01058,-0.01058 q -0.01058,-0.0635 -0.02117,-0.127 -0.01058,-0.0635 -0.03175,-0.137583 -0.03175,-0.148167 -0.0635,-0.28575 -0.02117,-0.137584 -0.02117,-0.254 v -0.3175 q 0,-0.1905 0,-0.381 0.01058,-0.201084 0.02117,-0.391584 0.01058,-0.137583 0.01058,-0.275166 0.01058,-0.137584 0.01058,-0.275167 z m 1.87325,3.2385 q -0.275167,-0.391583 -0.687917,-0.592666 -0.402167,-0.211667 -0.8255,-0.158751 -0.07408,0.01058 -0.116417,0.0635 -0.04233,0.05292 -0.07408,0.116417 l -0.03175,0.0635 q 0.02117,-0.01058 0.07408,-0.02117 0.0635,-0.01058 0.116417,-0.03175 l 0.148167,-0.04233 q 0.306916,-0.04233 0.5715,0.03175 0.264583,0.0635 0.4445,0.243417 0.4445,0.3175 0.518583,0.931333 0.01058,0.08467 0.01058,0.169334 0.01058,0.07408 0.01058,0.15875 0,0.201083 -0.02117,0.402166 -0.02117,0.201084 -0.04233,0.391584 -0.02117,0.08467 -0.03175,0.15875 0,0.07408 -0.01058,0.148166 -0.05292,0.359834 -0.1905,0.719667 -0.137584,0.359833 -0.465667,0.60325 l -0.01058,0.01058 q -0.05292,0.01058 -0.116416,0.03175 -0.05292,0.02117 -0.116417,0.04233 -0.05292,0.02117 -0.09525,0.04233 -0.04233,0.01058 -0.09525,0.02117 v 0.01058 q -0.201083,0.04233 -0.423333,0.02117 -0.211667,-0.03175 -0.402167,-0.116417 -0.03175,-0.05292 -0.127,-0.08467 h -0.01058 q 0.3175,0.275167 0.635,0.296334 0.370416,0.07408 0.762,-0.148167 0.3175,-0.1905 0.582083,-0.550333 0.296334,-0.804334 0.296334,-1.74625 0,-0.09525 -0.01058,-0.1905 0,-0.105834 -0.01058,-0.201084 L 37.3536,73.306463 q -0.03175,-0.179917 -0.07408,-0.34925 -0.04233,-0.179917 -0.15875,-0.306917 z m -1.926167,0.867834 q 0.09525,-0.04233 0.232833,-0.08467 0.137584,-0.04233 0.275167,-0.04233 0.148167,-0.01058 0.275167,0.04233 0.127,0.04233 0.211666,0.169333 0.08467,0.15875 0.09525,0.370417 0.01058,0.201083 -0.04233,0.359833 -0.0635,0.179917 -0.201083,0.275167 -0.137584,0.09525 -0.28575,0.15875 h -0.01058 l -0.03175,0.01058 q -0.105833,0.03175 -0.232833,0.05292 -0.116417,0.01058 -0.201083,-0.07408 h -0.01058 v -0.01058 q 0,-0.08467 -0.02117,-0.169333 -0.02117,-0.09525 -0.04233,-0.179917 -0.02117,-0.04233 -0.03175,-0.07408 0,-0.04233 -0.02117,-0.08467 0.01058,-0.08467 0.01058,-0.148166 0,-0.07408 0,-0.148167 0,-0.105833 0,-0.201083 0,-0.105834 0.02117,-0.211667 z m 0.910167,0.148166 q -0.28575,-0.306916 -0.772584,-0.08467 0.02117,0.07408 0.05292,0.09525 0.03175,0.02117 0.148167,-0.02117 0.0635,-0.02117 0.127,-0.03175 0.07408,-0.01058 0.137583,0.05292 0.211667,0.03175 0.306917,0.34925 0,0.07408 -0.03175,0.127 -0.03175,0.05292 -0.07408,0.105833 l -0.03175,0.04233 q -0.05292,0.0635 -0.116416,0.105834 -0.05292,0.03175 -0.105834,0.07408 -0.07408,0.04233 -0.137583,0.08467 -0.0635,0.04233 -0.09525,0.116416 0.22225,0 0.402167,-0.127 0.1905,-0.127 0.254,-0.328083 0,-0.02117 -0.01058,-0.05292 0,-0.03175 0,-0.0635 0,-0.0635 0.01058,-0.09525 v -0.105833 q 0,-0.169333 -0.0635,-0.243417 z m -0.836084,0.275167 q 0,0.328083 0.116417,0.73025 0.02117,-0.03175 0.0635,-0.09525 0.04233,-0.0635 0.05292,-0.08467 -0.01058,0 -0.02117,-0.01058 -0.01058,0 -0.02117,-0.01058 v -0.01058 q 0.01058,-0.04233 0.01058,-0.07408 0.01058,-0.03175 0.01058,-0.07408 0,-0.0635 -0.01058,-0.127 0,-0.0635 -0.01058,-0.127 -0.01058,-0.05292 -0.02117,-0.09525 0,-0.04233 0,-0.09525 -0.01058,-0.01058 -0.07408,-0.05292 -0.0635,-0.05292 -0.08467,-0.07408 -0.01058,0.05292 -0.01058,0.105833 0,0.04233 0,0.09525 z m 0.423334,-0.15875 q -0.09525,-0.02117 -0.127,-0.01058 v 0.0635 q 0,0.169333 0.03175,0.328083 0,0.05292 0,0.105833 0.01058,0.05292 0.01058,0.105834 0.01058,-0.01058 0.03175,-0.01058 0.02117,0 0.02117,0.02117 0.02117,-0.02117 0.04233,-0.04233 0.03175,-0.02117 0.0635,-0.04233 0.08467,-0.0635 0.148167,-0.127 0.0635,-0.0635 0.0635,-0.169333 -0.01058,0 -0.01058,-0.01058 0,-0.01058 -0.01058,-0.01058 0,0 0,-0.01058 -0.01058,-0.01058 -0.01058,-0.02117 -0.05292,-0.0635 -0.116417,-0.116416 -0.05292,-0.05292 -0.137583,-0.05292 z" />
      <path
         id="path821"
         style="font-style:normal;font-weight:normal;font-size:5.64444447px;line-height:125%;font-family:Sans;letter-spacing:0px;word-spacing:0px;fill:none;fill-opacity:1;stroke:#366f9e;stroke-width:0.30000001;stroke-linecap:round;stroke-linejoin:round;stroke-miterlimit:4;stroke-dasharray:none;stroke-opacity:1"
         d="m 40.744059,71.835389 q 0.34925,-0.03175 0.804334,-0.05292 0.455083,-0.02117 0.8255,0 h 0.01058 q 0.02117,0.04233 0.02117,0.0635 0,0 -0.02117,0.04233 0,0.01058 0.02117,0.01058 0.01058,0 0.01058,0.01058 v 0.01058 0.137584 q 0,0.148166 0.01058,0.296333 0.01058,0.137583 0.03175,0.28575 0.01058,0.08467 0.01058,0.169333 0.01058,0.08467 0.01058,0.169334 -0.01058,0.211666 -0.01058,0.423333 0,0.211667 0,0.433917 0,0.306916 0,0.635 0.01058,0.3175 0.02117,0.635 0.01058,0.306916 0.01058,0.592666 0,0.28575 0,0.560917 h 0.01058 v 0.01058 q 0,0.05292 -0.03175,0.116417 -0.01058,0.02117 -0.02117,0.05292 -0.01058,0.03175 -0.01058,0.05292 v 0.02117 l 0.01058,0.01058 -0.02117,0.01058 q -0.169334,0.02117 -0.359834,0.02117 -0.179916,0.01058 -0.381,0 -0.211666,-0.01058 -0.423333,-0.01058 -0.201083,0 -0.391583,0.03175 0,0.01058 -0.01058,0.01058 0,0.01058 0,0.02117 -0.03175,0.05292 -0.05292,0.0635 0,0 -0.04233,-0.02117 l -0.01058,-0.01058 q -0.01058,-0.0635 -0.02117,-0.127 0,-0.0635 0,-0.127 0,-0.05292 0,-0.105833 0.01058,-0.0635 0.02117,-0.116417 l -0.07408,0.07408 q -0.05292,0.05292 -0.09525,0.09525 -0.04233,0.04233 -0.127,0.05292 -0.211667,0.05292 -0.465667,0.04233 -0.254,-0.01058 -0.508,-0.0635 -0.201083,-0.03175 -0.370417,-0.15875 -0.169333,-0.127 -0.328083,-0.275166 l -0.22225,-0.1905 q -0.211667,-0.179917 -0.296333,-0.433917 -0.07408,-0.264583 -0.116417,-0.497417 -0.04233,-0.07408 -0.04233,-0.1905 0,-0.105833 0.01058,-0.15875 0,-0.04233 0,-0.07408 0.01058,-0.03175 0.01058,-0.0635 0,-0.03175 -0.01058,-0.04233 0.03175,-0.41275 0.179917,-0.804334 0.148166,-0.391583 0.338666,-0.814916 0.402167,-0.560917 0.804334,-0.5715 0.05292,-0.01058 0.116416,-0.01058 0.0635,0 0.116417,-0.01058 0.275167,-0.02117 0.550333,-0.02117 0.275167,0 0.486834,0.169334 0.01058,-0.02117 0.01058,-0.07408 0,-0.0635 -0.01058,-0.09525 0,-0.03175 -0.01058,-0.05292 0,-0.03175 0,-0.0635 0,-0.0635 0.02117,-0.08467 v -0.01058 z m -1.291166,0.381001 q -0.05292,0.01058 -0.09525,0.02117 -0.02117,0.01058 -0.0635,0.01058 -0.02117,0 -0.03175,0.01058 -0.116417,0.02117 -0.1905,0.08467 -0.0635,0.0635 -0.137584,0.127 -0.243416,0.275166 -0.370416,0.613833 -0.116417,0.328083 -0.22225,0.66675 l -0.01058,0.01058 q -0.09525,0.370417 -0.09525,0.719667 0,0.518583 0.201084,0.910167 0.179916,0.243416 0.465666,0.518583 0.296334,0.264583 0.66675,0.359833 h 0.03175 q 0.05292,0.01058 0.105834,0.02117 0.05292,0 0.08467,0.02117 h 0.116417 q 0.179917,0.01058 0.359833,0 0.1905,-0.01058 0.328084,-0.127 0.02117,-0.05292 0.05292,-0.08467 0.04233,-0.04233 0.07408,-0.07408 0.07408,-0.07408 0.09525,-0.105834 -0.09525,0.08467 -0.232834,0.105834 -0.137583,0.02117 -0.275166,0.04233 l -0.09525,0.02117 q -0.07408,-0.01058 -0.137584,-0.01058 -0.0635,0 -0.127,0 -0.148166,-0.01058 -0.296333,-0.01058 -0.137583,-0.01058 -0.275167,-0.05292 -0.402166,-0.116416 -0.613833,-0.465666 -0.201083,-0.359834 -0.254,-0.73025 -0.0635,-0.28575 -0.0635,-0.5715 0,-0.486834 0.1905,-0.941917 0.201083,-0.455083 0.5715,-0.8255 0.211667,-0.179917 0.497417,-0.232833 0.28575,-0.0635 0.5715,0.01058 0.127,0.05292 0.243416,0.116417 0.127,0.05292 0.243417,0.116416 0.01058,0.01058 0.03175,0.02117 l 0.0635,0.03175 v -0.02117 q -0.03175,-0.08467 -0.08467,-0.08467 h -0.01058 v -0.01058 q -0.0635,-0.116416 -0.179917,-0.169333 -0.116416,-0.05292 -0.201083,-0.07408 -0.254,-0.07408 -0.47625,-0.04233 -0.211667,0.02117 -0.455083,0.07408 z m 1.397,4.191 q 0.03175,-0.02117 0.07408,-0.0635 0.04233,-0.05292 0.05292,-0.05292 0.03175,-0.0635 0.03175,-0.148167 0,-0.08467 -0.01058,-0.127 -0.01058,-0.05292 -0.01058,-0.15875 v -0.05292 q -0.08467,0.116416 -0.116417,0.243416 -0.02117,0.127 -0.02117,0.254 z m 1.17475,-0.137584 q -0.03175,0.02117 -0.0635,0.04233 -0.03175,0.02117 -0.08467,-0.01058 -0.15875,0.03175 -0.338667,0.03175 -0.169333,0 -0.34925,-0.01058 h -0.08467 q -0.01058,0 -0.05292,0.05292 -0.04233,0.04233 -0.07408,0.07408 0.169333,-0.02117 0.338666,-0.02117 0.169334,-0.01058 0.34925,0 0.169334,0 0.328084,0 0.169333,0 0.3175,-0.02117 -0.02117,-0.02117 -0.03175,-0.04233 -0.05292,-0.08467 -0.09525,-0.0635 l -0.01058,0.01058 -0.01058,-0.01058 q -0.03175,-0.02117 -0.05292,-0.08467 -0.05292,0 -0.08467,0.05292 z m 0.169333,-4.15925 q 0.01058,0.179917 0.01058,0.381 0,0.1905 0,0.391584 v 0.508 0.518583 q 0,0.391583 0.01058,0.783167 0.01058,0.391583 0.03175,0.762 0.02117,0.04233 0.02117,0.148166 0,0.05292 -0.01058,0.09525 0,0.04233 0,0.09525 -0.01058,0.05292 -0.01058,0.09525 0,0.04233 0,0.09525 0,0.09525 0.02117,0.169334 0.02117,0.07408 0.105834,0.127 0.03175,-0.15875 0.03175,-0.328084 v -0.169333 q -0.01058,-0.04233 -0.01058,-0.08467 0,-0.04233 0,-0.08467 v -0.105834 q -0.02117,-0.105833 -0.02117,-0.201083 0,-0.105833 0,-0.211667 v -0.105833 -0.09525 q 0,-0.1905 -0.03175,-0.381 0.02117,-0.232833 0.02117,-0.455083 0.01058,-0.22225 0.01058,-0.4445 0,-0.423334 -0.02117,-0.8255 -0.02117,-0.402167 -0.04233,-0.793751 z m -0.582083,0.07408 q -0.09525,0.01058 -0.201084,0.01058 -0.09525,0 -0.1905,0 -0.0635,-0.01058 -0.09525,0.02117 -0.03175,0.02117 -0.03175,0.08467 0,0.05292 0,0.105834 0,0.03175 0,0.05292 0.01058,0.02117 0,0.04233 0,0.03175 -0.02117,0.07408 -0.05292,0.07408 -0.02117,0.137583 l 0.01058,0.02117 h -0.01058 l -0.02117,0.02117 q 0,0.03175 -0.03175,0.04233 l -0.01058,0.01058 -0.07408,-0.0635 q -0.05292,-0.05292 -0.105834,-0.09525 -0.05292,-0.05292 -0.116416,-0.07408 h -0.01058 q -0.105833,-0.105833 -0.254,-0.15875 -0.137583,-0.0635 -0.296333,-0.07408 -0.15875,-0.02117 -0.3175,0.01058 -0.15875,0.02117 -0.28575,0.0635 -0.423333,0.22225 -0.656167,0.66675 -0.179916,0.328083 -0.306916,0.878417 v 0.201083 q 0,0.402167 0.09525,0.8255 0.09525,0.423333 0.423333,0.73025 0.105833,0.08467 0.211667,0.127 0.116416,0.03175 0.232833,0.0635 0.08467,0.02117 0.148167,0.04233 0.09525,-0.01058 0.179916,-0.01058 0.09525,0 0.179917,0 0.137583,0 0.275167,0 0.137583,0 0.254,-0.03175 0.127,-0.04233 0.22225,-0.116417 0.105833,-0.08467 0.1905,-0.232833 0,0 0.01058,-0.02117 0,-0.04233 0.03175,-0.04233 0.01058,-0.01058 0.04233,0 0.05292,0.09525 0.05292,0.232833 0,0.03175 -0.01058,0.0635 0,0.03175 0,0.0635 v 0.116417 q 0,0.137583 0.04233,0.22225 0.08467,0.03175 0.169333,0.03175 0.09525,0 0.1905,-0.01058 0.127,-0.02117 0.243417,0 0.05292,-0.04233 0.09525,-0.05292 0.05292,-0.01058 0.105833,-0.01058 0.05292,-0.01058 0.09525,-0.02117 0.05292,-0.01058 0.08467,-0.05292 V 75.80414 q 0,-0.116417 0.01058,-0.275167 -0.03175,-0.381 -0.04233,-0.762 -0.01058,-0.381 -0.01058,-0.751417 v -0.3175 -0.306916 q 0,-0.306917 0,-0.60325 0,-0.306917 -0.02117,-0.613834 -0.105833,-0.02117 -0.22225,-0.01058 -0.116417,0.01058 -0.232833,0.02117 z m -0.783167,0.09525 q 0.01058,0 0.01058,0.01058 0,0.02117 0.01058,0.02117 l 0.02117,0.02117 q 0.03175,0.05292 0.05292,0.09525 0.03175,0.03175 0.05292,0.08467 0,-0.07408 0.01058,-0.105833 0,-0.04233 0,-0.07408 0.01058,-0.03175 0.01058,-0.0635 0,-0.04233 -0.02117,-0.127 -0.01058,-0.01058 -0.0635,-0.05292 -0.05292,-0.05292 -0.08467,-0.07408 z m 0.889,-0.402167 q -0.1905,0.01058 -0.391583,0.02117 -0.201084,0.01058 -0.381,0.03175 0.02117,0.02117 0.07408,0.08467 0.0635,0.0635 0.0635,0.07408 0.08467,-0.02117 0.15875,-0.02117 0.08467,0 0.15875,0 h 0.15875 q 0.05292,-0.02117 0.116417,-0.02117 0.07408,0 0.148166,0.01058 0.137584,0.01058 0.254,0 0.116417,-0.02117 0.169334,-0.148167 -0.05292,0 -0.105834,0 -0.04233,-0.01058 -0.09525,-0.02117 -0.0635,-0.01058 -0.137583,-0.02117 -0.0635,-0.01058 -0.137583,0.01058 z m -1.756833,1.42875 q 0.53975,0.03175 0.899583,0.529167 l 0.01058,0.01058 h -0.01058 v 0.02117 q 0,0.02117 0.03175,0.03175 0.0635,0.02117 0.0635,0.07408 0,0.01058 -0.01058,0.02117 0.01058,0.02117 0.01058,0.04233 0,0.359833 -0.338667,0.550333 -0.201083,0.116417 -0.433916,0.137584 -0.22225,0.01058 -0.433917,-0.07408 -0.211667,-0.116416 -0.254,-0.306916 -0.03175,-0.201084 -0.02117,-0.370417 l 0.01058,-0.02117 q 0.08467,-0.179916 0.179916,-0.34925 0.105834,-0.179916 0.28575,-0.296333 z m 0.275166,0.179917 q -0.05292,-0.03175 -0.127,-0.04233 -0.07408,-0.02117 -0.127,-0.01058 -0.116416,0.08467 -0.201083,0.1905 -0.07408,0.09525 -0.127,0.201083 -0.07408,0.148167 -0.07408,0.338667 0,0.04233 0,0.08467 0,0.03175 0.01058,0.08467 0.04233,0.07408 0.09525,0.127 0.0635,0.04233 0.127,0.09525 0.01058,0 0.02117,0.01058 0.02117,0.02117 0.03175,0.02117 0.105833,0.04233 0.22225,0.04233 0.116416,-0.01058 0.22225,-0.04233 0.116416,-0.03175 0.201083,-0.07408 0.09525,-0.04233 0.15875,-0.08467 0.04233,-0.0635 0.05292,-0.07408 0.05292,-0.07408 0.09525,-0.137583 0.04233,-0.0635 0.04233,-0.148167 0,-0.02117 -0.01058,-0.03175 -0.02117,-0.02117 -0.05292,-0.05292 -0.03175,-0.03175 -0.0635,-0.07408 0.02117,0.04233 0.02117,0.07408 0,0.02117 -0.01058,0.03175 0,0.0635 -0.03175,0.116417 -0.02117,0.04233 -0.0635,0.09525 -0.04233,0.04233 -0.0635,0.07408 -0.15875,0.105834 -0.338666,0.09525 -0.179917,-0.01058 -0.34925,-0.04233 l -0.02117,-0.01058 q -0.0635,-0.0635 -0.116417,-0.137584 -0.05292,-0.08467 -0.04233,-0.169333 0.05292,-0.232833 0.254,-0.433917 l 0.05292,-0.01058 q 0.09525,-0.02117 0.179916,-0.01058 0.08467,0 0.15875,0.08467 l 0.08467,0.02117 q 0.04233,0.01058 0.08467,0.01058 h 0.01058 l 0.03175,0.02117 q 0.02117,0.02117 0.04233,0.04233 0.02117,0.02117 0.04233,0.04233 -0.01058,-0.02117 -0.02117,-0.03175 -0.01058,-0.02117 -0.01058,-0.04233 -0.08467,-0.04233 -0.127,-0.09525 -0.0635,-0.05292 -0.127,-0.08467 -0.05292,-0.04233 -0.127,-0.05292 z m -0.359833,0.433916 q -0.01058,0.02117 -0.02117,0.04233 -0.01058,0.01058 -0.02117,0.03175 0,0.02117 -0.01058,0.03175 0,0.01058 0,0.03175 0,0.09525 0.07408,0.137583 0.148166,0.09525 0.338666,0.07408 0.1905,-0.03175 0.275167,-0.05292 0.05292,-0.05292 0.09525,-0.09525 0.04233,-0.05292 0.04233,-0.105834 0,-0.02117 -0.01058,-0.03175 0,-0.05292 -0.08467,-0.116416 -0.0635,-0.04233 -0.08467,-0.0635 -0.0635,0.01058 -0.105834,-0.01058 -0.04233,-0.02117 -0.08467,-0.05292 -0.04233,-0.03175 -0.08467,-0.05292 -0.04233,-0.02117 -0.105833,0 -0.08467,0.01058 -0.137584,0.08467 -0.04233,0.0635 -0.07408,0.148166 z" />
      <path
         id="path823"
         style="font-style:normal;font-weight:normal;font-size:5.64444447px;line-height:125%;font-family:Sans;letter-spacing:0px;word-spacing:0px;fill:none;fill-opacity:1;stroke:#366f9e;stroke-width:0.30000001;stroke-linecap:round;stroke-linejoin:round;stroke-miterlimit:4;stroke-dasharray:none;stroke-opacity:1"
         d="m 44.085747,71.888306 q 0.306917,-0.127 0.656167,-0.179917 0.34925,-0.05292 0.6985,-0.01058 0.08467,0 0.148167,0.03175 0.0635,0.02117 0.127,0.05292 0.03175,0.02117 0.116416,0.0635 0.127,0.03175 0.243417,0.116416 0.116417,0.08467 0.179917,0.201084 l 0.01058,0.01058 h -0.01058 q -0.03175,0.137584 -0.07408,0.264584 -0.04233,0.127 -0.09525,0.254 -0.05292,0.148166 -0.116416,0.296333 -0.05292,0.148167 -0.08467,0.296333 v 0.01058 q -0.02117,0.01058 -0.02117,0.03175 0,0.01058 -0.01058,0.03175 -0.02117,0.07408 -0.05292,0.08467 -0.02117,0.01058 -0.07408,-0.02117 l -0.01058,-0.01058 q -0.02117,-0.09525 -0.105834,-0.127 -0.07408,-0.03175 -0.15875,-0.05292 -0.04233,-0.01058 -0.08467,-0.01058 -0.04233,-0.01058 -0.07408,-0.03175 h -0.137583 q -0.05292,0 -0.105833,0 -0.04233,0 -0.08467,0.01058 0.07408,0.09525 0.15875,0.116416 0.09525,0.02117 0.201083,0.03175 0.08467,0 0.169334,0.02117 0.09525,0.01058 0.179916,0.07408 0.328084,0.179917 0.529167,0.529167 0.201083,0.34925 0.201083,0.751417 0,0.07408 -0.01058,0.105833 -0.01058,0.211667 -0.03175,0.423333 -0.01058,0.201084 -0.0635,0.391584 -0.127,0.465666 -0.4445,0.66675 -0.264583,0.243416 -0.518583,0.296333 -0.01058,0.01058 -0.05292,0.03175 -0.02117,0.01058 -0.05292,0.03175 l -0.01058,0.01058 q -0.60325,0.137584 -1.153583,0 -0.550334,-0.127 -0.984251,-0.508 h -0.02117 q -0.0635,0.02117 -0.09525,-0.03175 l -0.01058,-0.01058 v -0.0635 h 0.01058 q 0.04233,-0.116417 0.09525,-0.232833 0.0635,-0.116417 0.116416,-0.232834 0.105834,-0.201083 0.1905,-0.391583 0.09525,-0.201083 0.116417,-0.41275 l 0.01058,-0.01058 h 0.01058 q 0.105833,-0.03175 0.1905,0.02117 0.08467,0.05292 0.15875,0.127 0.04233,0.03175 0.07408,0.07408 0.04233,0.03175 0.09525,0.05292 0.116417,0.0635 0.22225,0.04233 0.105834,-0.02117 0.22225,-0.0635 0.04233,-0.01058 0.07408,-0.02117 0.04233,-0.01058 0.08467,-0.02117 0.01058,-0.03175 0.04233,-0.04233 0.01058,0 0.02117,-0.01058 l -0.01058,-0.01058 v -0.01058 h 0.02117 q 0.03175,-0.01058 0.03175,-0.05292 0.01058,-0.02117 0.01058,-0.04233 -0.03175,-0.116417 -0.137583,-0.15875 -0.09525,-0.04233 -0.211667,-0.07408 -0.0635,-0.02117 -0.09525,-0.02117 -0.264583,-0.05292 -0.560917,-0.179917 -0.28575,-0.137583 -0.423333,-0.41275 -0.127,-0.264583 -0.127,-0.5715 0,-0.518583 0.34925,-0.98425 0.05292,-0.15875 0.169333,-0.264583 0.127,-0.105833 0.264584,-0.1905 0.03175,-0.02117 0.05292,-0.04233 0.03175,-0.02117 0.0635,-0.04233 z m -0.740833,3.6195 q -0.07408,0.116417 -0.137584,0.254 -0.05292,0.127 -0.09525,0.264584 0.04233,-0.02117 0.105834,-0.0635 0.07408,-0.05292 0.127,-0.0635 0,-0.02117 0.04233,-0.127 0.02117,-0.04233 0.04233,-0.09525 0.05292,-0.148167 0.09525,-0.296334 0.04233,-0.15875 0.04233,-0.3175 v -0.0635 q -0.04233,0.127 -0.105834,0.254 -0.05292,0.127 -0.116416,0.254 z m 1.598083,-2.63525 q -0.148166,-0.02117 -0.232833,0.0635 -0.08467,0.08467 -0.137583,0.179917 0,0.01058 -0.01058,0.02117 0,0.01058 0,0.03175 0,0.0635 0.04233,0.105833 0.05292,0.04233 0.116416,0.09525 0.05292,0.02117 0.09525,0.03175 0.05292,0.01058 0.105834,0.03175 0.28575,0.08467 0.550333,0.1905 0.264583,0.105833 0.433917,0.381 l 0.07408,0.15875 q 0.08467,0.211667 0.15875,0.423333 0.07408,0.211667 0.07408,0.455084 0,0.09525 -0.01058,0.148166 v 0.01058 q -0.179917,0.497416 -0.53975,0.846666 -0.41275,0.370417 -0.910167,0.391584 -0.370416,0.05292 -0.687916,-0.0635 -0.3175,-0.127 -0.624417,-0.296334 -0.03175,-0.04233 -0.05292,-0.05292 -0.03175,0 -0.07408,0.03175 -0.04233,0.02117 -0.07408,0.04233 h -0.01058 q 0.03175,0.05292 0.09525,0.105833 0.0635,0.04233 0.127,0.08467 0.03175,0.02117 0.0635,0.05292 0.04233,0.02117 0.07408,0.04233 0.232833,0.105833 0.508,0.169333 0.275166,0.0635 0.560916,0.0635 0.296334,0 0.582084,-0.09525 0.28575,-0.08467 0.53975,-0.28575 0.232833,-0.169333 0.359833,-0.455083 0.137583,-0.28575 0.137583,-0.592667 v -0.03175 -0.116416 -0.179917 q 0.01058,-0.05292 0.01058,-0.169333 0,-0.05292 0,-0.08467 0,-0.04233 -0.02117,-0.09525 -0.05292,-0.306917 -0.201083,-0.53975 -0.148167,-0.232833 -0.381,-0.370417 -0.08467,-0.08467 -0.1905,-0.105833 -0.09525,-0.02117 -0.211667,-0.03175 -0.116417,-0.01058 -0.232833,-0.03175 -0.116417,-0.02117 -0.201084,-0.137583 -0.02117,-0.03175 -0.02117,-0.09525 0,-0.0635 0.03175,-0.116417 h 0.01058 q 0.08467,-0.02117 0.169333,-0.02117 0.09525,0 0.179917,0.01058 0.05292,0.01058 0.09525,0.02117 0.05292,0 0.105833,0 l -0.15875,-0.15875 q -0.01058,0 -0.0635,0 -0.04233,-0.01058 -0.09525,-0.03175 -0.0635,-0.01058 -0.15875,-0.03175 z m 0.4445,-0.79375 q -0.116416,0.02117 -0.211666,0.02117 -0.09525,0 -0.1905,0 -0.116417,-0.01058 -0.243417,0 -0.116417,0 -0.243417,0.04233 v 0.01058 q -0.116416,0 -0.232833,0.05292 -0.105833,0.04233 -0.211667,0.105834 -0.148166,0.148166 -0.306916,0.34925 -0.148167,0.201083 -0.1905,0.4445 0.03175,0.465666 0.201083,0.772583 0.137583,0.127 0.296333,0.179917 0.169334,0.05292 0.338667,0.08467 0.22225,0.05292 0.423333,0.127 0.211667,0.07408 0.328084,0.3175 0.05292,0.127 0.05292,0.232834 0,0.211666 -0.127,0.370416 -0.201083,0.169334 -0.508,0.201084 -0.306916,0.02117 -0.550333,-0.09525 h 0.01058 q -0.08467,-0.01058 -0.148166,-0.08467 -0.04233,-0.02117 -0.08467,-0.04233 -0.03175,-0.03175 -0.07408,-0.04233 -0.01058,0.08467 -0.04233,0.179917 -0.03175,0.09525 -0.0635,0.179917 -0.04233,0.105833 -0.08467,0.211666 -0.03175,0.105834 -0.03175,0.211667 v 0.03175 q 0.04233,0.02117 0.07408,0.04233 0.04233,0.02117 0.08467,0.04233 0.05292,0.02117 0.105833,0.05292 0.0635,0.03175 0.116417,0.08467 0.179916,0.116417 0.381,0.137583 0.211666,0.01058 0.41275,0 h 0.179916 q 0.275167,-0.04233 0.47625,-0.169333 0.211667,-0.127 0.359834,-0.28575 0.148166,-0.169333 0.243416,-0.338667 0.105834,-0.169333 0.15875,-0.306916 0.01058,-0.01058 0.01058,-0.03175 0,-0.02117 -0.01058,-0.04233 0,-0.03175 0,-0.05292 -0.01058,-0.03175 -0.01058,-0.09525 0,-0.05292 0.01058,-0.08467 -0.05292,-0.28575 -0.15875,-0.5715 -0.105833,-0.28575 -0.328083,-0.47625 -0.127,-0.09525 -0.275167,-0.148167 -0.137583,-0.05292 -0.28575,-0.09525 -0.148166,-0.04233 -0.296333,-0.08467 -0.148167,-0.05292 -0.264583,-0.169334 -0.04233,-0.105833 -0.04233,-0.148166 0,-0.169334 0.15875,-0.328084 0.105834,-0.148166 0.243417,-0.137583 0.137583,0 0.264583,0.04233 0.05292,0.02117 0.105834,0.03175 0.05292,0 0.105833,0.01058 0.04233,0 0.07408,0.03175 0.03175,0.02117 0.05292,0.04233 0.03175,0.05292 0.0635,0.05292 0.01058,0 0.01058,-0.01058 0.01058,-0.03175 0.04233,-0.03175 h 0.01058 q 0,-0.01058 0.01058,-0.03175 0.01058,-0.02117 0.02117,-0.04233 l 0.02117,-0.04233 q 0.05292,-0.116417 0.09525,-0.22225 0.04233,-0.116417 0.05292,-0.232834 -0.01058,-0.01058 -0.07408,-0.07408 -0.0635,-0.0635 -0.0635,-0.07408 z m -0.994833,-0.169333 q -0.05292,0.01058 -0.09525,0.02117 -0.04233,0.01058 -0.08467,0.02117 -0.01058,0.01058 -0.0635,0.04233 -0.04233,0.02117 -0.105833,0.0635 l -0.169333,0.105833 q -0.211667,0.201083 -0.402167,0.518583 -0.179917,0.306917 -0.179917,0.73025 0,0.0635 0,0.127 0.01058,0.0635 0.02117,0.127 0.05292,0.22225 0.211667,0.41275 0.169333,0.179917 0.402166,0.264584 h 0.01058 q 0.08467,0.05292 0.179916,0.07408 0.105834,0.02117 0.211667,0.04233 0.169333,0.02117 0.3175,0.08467 0.15875,0.05292 0.211667,0.264583 0.01058,0.01058 0.01058,0.02117 0,0.07408 -0.04233,0.137583 -0.04233,0.05292 -0.09525,0.105834 l -0.05292,0.02117 q -0.105833,0.05292 -0.22225,0.09525 -0.116417,0.03175 -0.232833,0.04233 0.201083,0.05292 0.423333,0.01058 0.232833,-0.04233 0.391583,-0.211667 0.04233,-0.07408 0.04233,-0.169333 0,-0.05292 -0.01058,-0.105833 -0.01058,-0.0635 -0.03175,-0.116417 -0.127,-0.201083 -0.306916,-0.264583 -0.179917,-0.0635 -0.391584,-0.105834 -0.116416,-0.02117 -0.232833,-0.05292 -0.105833,-0.03175 -0.211667,-0.08467 -0.201083,-0.0635 -0.275166,-0.232833 -0.0635,-0.179917 -0.116417,-0.359834 l -0.01058,-0.05292 q -0.04233,-0.116417 -0.04233,-0.264584 0,-0.15875 0.04233,-0.3175 0.05292,-0.15875 0.148166,-0.275166 0.01058,-0.05292 0.04233,-0.08467 0.03175,-0.04233 0.07408,-0.07408 0.07408,-0.0635 0.105833,-0.127 v -0.01058 q 0.169334,-0.201083 0.47625,-0.264583 0.306917,-0.0635 0.582084,-0.08467 0.550333,-0.127 0.910166,0.201084 0.04233,-0.03175 0.116417,-0.03175 0.02117,-0.01058 0.05292,-0.01058 0.03175,-0.01058 0.05292,-0.03175 -0.01058,0 -0.03175,-0.02117 l -0.01058,-0.01058 q -0.05292,-0.05292 -0.105833,-0.08467 -0.05292,-0.03175 -0.116417,-0.03175 h -0.01058 V 71.9518 q -0.137584,-0.105833 -0.296334,-0.127 -0.148166,-0.02117 -0.296333,-0.02117 -0.201083,-0.04233 -0.41275,0.01058 -0.201083,0.04233 -0.381,0.09525 z m 1.61925,0.338667 q -0.02117,0.02117 -0.05292,0.03175 -0.02117,0 -0.05292,0.02117 0.01058,0 0.01058,0.02117 0,0.01058 -0.03175,0.04233 l -0.02117,0.02117 q -0.02117,0.116417 -0.0635,0.22225 -0.03175,0.09525 -0.07408,0.1905 -0.02117,0.05292 -0.04233,0.116417 -0.02117,0.05292 -0.04233,0.105833 0,0.01058 0.05292,0.105833 0.0635,0.08467 0.08467,0.116417 0.03175,-0.09525 0.0635,-0.179917 0.04233,-0.09525 0.07408,-0.179916 0.0635,-0.15875 0.116417,-0.328084 0.0635,-0.169333 0.08467,-0.34925 -0.04233,0.02117 -0.105833,0.04233 z" />
      <path
         id="path825"
         style="font-style:normal;font-weight:normal;font-size:5.64444447px;line-height:125%;font-family:Sans;letter-spacing:0px;word-spacing:0px;fill:none;fill-opacity:1;stroke:#ffc938;stroke-width:0.30000001;stroke-linecap:round;stroke-linejoin:round;stroke-miterlimit:4;stroke-dasharray:none;stroke-opacity:1"
         d="m 49.845066,69.274223 0.05292,0.02117 v 0.01058 q 0.02117,0.1905 0.03175,0.370416 0.01058,0.169334 0.01058,0.328084 0,0.137583 -0.01058,0.264583 0,0.127 0,0.264583 -0.01058,0.148167 -0.02117,0.296334 0,0.148166 0,0.306916 0,0.04233 -0.01058,0.05292 v 0.04233 q 0.105834,-0.02117 0.211667,0 0.105833,0.01058 0.22225,0.03175 0.137583,0.02117 0.264583,0.04233 0.137584,0.01058 0.28575,-0.03175 v -0.01058 l 0.01058,0.01058 q 0.02117,0.01058 0.02117,0.07408 0,0.01058 0,0.02117 0.01058,0.01058 0.01058,0.02117 v 0.01058 q 0.05292,0.127 0.0635,0.264583 0.01058,0.137583 0.01058,0.275167 0,0.28575 -0.03175,0.53975 l -0.03175,0.381 v 0.01058 h -0.01058 q -0.09525,0.04233 -0.22225,0.04233 -0.0635,0.01058 -0.127,0.02117 -0.0635,0.01058 -0.116417,0.03175 l -0.01058,0.01058 q -0.09525,0.01058 -0.1905,0.03175 -0.08467,0.02117 -0.179917,0.05292 -0.116417,0.04233 -0.211667,0.05292 v 0.116417 q 0,0.201083 0.03175,0.423333 0.02117,0.116417 0.03175,0.211667 0.01058,0.09525 0.01058,0.179916 0,0.02117 -0.01058,0.03175 0,0 0,0.01058 0.01058,0.08467 0.01058,0.169333 0.01058,0.08467 0.01058,0.169333 0,0.275167 -0.03175,0.550334 -0.02117,0.275166 -0.04233,0.550333 -0.02117,0.179917 -0.04233,0.370417 -0.01058,0.179916 -0.03175,0.370416 l 0.01058,0.05292 q 0.02117,0.08467 0.02117,0.116417 0,0.0635 -0.04233,0.09525 l -0.01058,0.01058 q -0.01058,0 -0.02117,-0.01058 l -0.02117,-0.02117 q -0.179916,0.02117 -0.359833,0.05292 -0.169333,0.03175 -0.34925,0.07408 -0.116417,0.03175 -0.232833,0.05292 -0.105834,0.03175 -0.22225,0.05292 -0.137584,0 -0.264584,0.03175 -0.0635,0.02117 -0.169333,0.04233 h -0.01058 l -0.01058,-0.02117 v -0.01058 q 0,-0.0635 0.02117,-0.116417 0.03175,-0.05292 0.05292,-0.105833 0.02117,-0.05292 0.04233,-0.105834 0.03175,-0.0635 0.03175,-0.127 0,-0.04233 -0.01058,-0.0635 v -0.09525 q 0,-0.338666 0.02117,-0.687916 0.02117,-0.34925 0.04233,-0.6985 0.02117,-0.359834 0.03175,-0.719667 0.02117,-0.370417 0.02117,-0.709083 v -0.34925 q -0.07408,0.04233 -0.148166,0.15875 -0.01058,0 -0.01058,0.01058 0,0.01058 -0.01058,0.02117 -0.02117,0.254 -0.02117,0.53975 0,0.275166 0,0.582083 0,0.423333 -0.01058,0.85725 -0.01058,0.423333 -0.0635,0.804333 0.01058,0.05292 0.01058,0.105834 0.01058,0.04233 0.01058,0.09525 0.01058,0.0635 0.01058,0.127 0.01058,0.0635 0.01058,0.127 0,0.05292 0,0.09525 0,0.04233 -0.02117,0.08467 v 0.04233 l -0.05292,-0.0635 v -0.01058 q 0,-0.08467 0,-0.148166 0,-0.07408 -0.01058,-0.15875 -0.01058,-0.105834 -0.01058,-0.201084 0,-0.09525 0,-0.201083 0,-0.105833 0,-0.201083 0,-0.105834 0.02117,-0.211667 v -0.179917 q 0,-0.306916 0.01058,-0.624416 0.02117,-0.328084 0.04233,-0.645584 -0.01058,-0.05292 -0.02117,-0.127 0,-0.08467 0,-0.169333 v -0.179917 q 0.01058,-0.04233 0.01058,-0.07408 0,-0.04233 0,-0.07408 v -0.0635 q -0.03175,0 -0.0635,0.01058 -0.02117,0 -0.05292,0 -0.04233,0.01058 -0.08467,0.02117 -0.04233,0.01058 -0.09525,0.01058 l -0.211667,0.01058 q -0.3175,0.02117 -0.550333,0.0635 l -0.01058,-0.01058 q -0.04233,-0.02117 -0.05292,-0.05292 0,-0.03175 -0.01058,-0.0635 0,-0.0635 -0.03175,-0.09525 v -0.01058 q -0.05292,-0.116417 -0.0635,-0.243417 0,-0.137583 0,-0.28575 V 72.544473 72.40689 q 0,-0.116417 -0.01058,-0.232834 -0.01058,-0.127 -0.04233,-0.243417 l 0.01058,-0.01058 v -0.03175 q 0,-0.05292 -0.01058,-0.08467 -0.02117,-0.04233 -0.02117,-0.07408 0,-0.05292 0.05292,-0.08467 l 0.296333,-0.04233 q 0.116417,-0.02117 0.201084,-0.03175 0.09525,-0.01058 0.105833,-0.01058 0.0635,-0.03175 0.127,-0.03175 0.0635,-0.01058 0.116417,-0.02117 0.07408,-0.01058 0.137583,-0.02117 0.0635,-0.01058 0.127,-0.04233 0,-0.09525 -0.01058,-0.179917 0,-0.08467 0,-0.169333 0,-0.179917 0.02117,-0.338667 0.02117,-0.169333 0.07408,-0.391583 0.03175,-0.22225 0.05292,-0.465667 0.03175,-0.243416 0.03175,-0.455083 v -0.01058 h 0.01058 q 0.148166,-0.07408 0.3175,-0.08467 0.179916,-0.02117 0.359833,-0.03175 0.105833,-0.01058 0.201083,-0.01058 0.105834,0 0.201084,-0.02117 l 0.116416,0.01058 q 0.116417,0.02117 0.232834,0.02117 0.127,0 0.243416,-0.03175 z m -1.04775,0.137583 q -0.148167,0.01058 -0.28575,0.02117 -0.127,0.01058 -0.243417,0.07408 0.02117,0.05292 0.0635,0.09525 0.04233,0.03175 0.08467,0.05292 0.08467,-0.02117 0.179916,-0.02117 0.09525,0 0.201084,0 h 0.275166 q 0.116417,0.02117 0.232834,0.03175 0.116416,0 0.201083,-0.02117 0.01058,-0.03175 0.04233,-0.03175 0.02117,0 0.03175,0.01058 0.02117,0.01058 0.04233,0.02117 l 0.03175,0.03175 h 0.01058 l -0.01058,0.01058 v 0.28575 q 0,0.148166 0,0.28575 0.01058,0.137583 0.02117,0.264583 0.01058,0.127 0.01058,0.264583 0.01058,0.127 0.01058,0.264584 0,0.09525 -0.01058,0.201083 0,0.09525 -0.01058,0.211667 l 0.03175,-0.03175 q 0.02117,-0.02117 0.04233,-0.04233 0.03175,-0.03175 0.04233,-0.05292 0.03175,-0.243417 0.04233,-0.433917 0.01058,-0.201083 0.01058,-0.41275 0,-0.116417 0,-0.243417 0,-0.127 -0.01058,-0.264583 -0.01058,-0.09525 -0.01058,-0.169333 v -0.179917 -0.03175 q 0,-0.02117 0,-0.04233 0.01058,-0.02117 0.01058,-0.04233 0.02117,-0.04233 0.02117,-0.0635 0,-0.03175 -0.03175,-0.05292 -0.137583,0.02117 -0.306917,0.01058 -0.15875,-0.01058 -0.296333,-0.03175 h -0.01058 q -0.105834,0.02117 -0.211667,0.03175 -0.105833,0 -0.201083,0 z m -1.820334,3.069167 q 0,0.169333 0,0.338667 0.01058,0.15875 0.05292,0.306916 0.01058,0.02117 0.01058,0.04233 0.01058,0.02117 0.02117,0.04233 0.02117,0.08467 0.04233,0.116417 0.01058,-0.02117 0.02117,-0.04233 0.02117,-0.02117 0.04233,-0.04233 0.07408,-0.09525 0.07408,-0.148167 0,-0.05292 -0.02117,-0.08467 l -0.01058,-0.01058 q 0.01058,-0.02117 0.01058,-0.0635 0,-0.07408 -0.01058,-0.137583 -0.01058,-0.0635 -0.03175,-0.137583 -0.02117,-0.07408 -0.03175,-0.137584 -0.01058,-0.0635 -0.01058,-0.137583 v -0.03175 l -0.01058,-0.05292 q -0.02117,-0.116416 -0.05292,-0.211666 -0.02117,-0.09525 -0.116417,-0.158751 v 0.137584 q 0,0.04233 0.01058,0.08467 0.01058,0.05292 0.01058,0.09525 0,0.04233 0,0.09525 v 0.07408 z m 1.037167,-0.92075 q -0.116417,0.02117 -0.243417,0.04233 -0.127,0.02117 -0.243416,0.02117 -0.05292,0.01058 -0.105834,0.02117 -0.05292,0.01058 -0.105833,0.02117 -0.08467,0.02117 -0.169334,0.04233 -0.08467,0.02117 -0.169333,0.05292 0.04233,0.07408 0.08467,0.127 0.05292,0.05292 0.127,0.07408 0.15875,-0.105833 0.34925,-0.127 0.1905,-0.02117 0.391583,-0.03175 0.07408,0 0.137584,0 0.07408,0 0.137583,-0.01058 -0.08467,-0.15875 -0.1905,-0.232833 z m 0.04233,-0.497417 q 0,0.179917 0.03175,0.370417 0,0 0.03175,0.0635 0.04233,0.05292 0.08467,0.116416 0.04233,0.0635 0.07408,0.116417 0.04233,0.05292 0.04233,0.0635 h 0.01058 v -0.22225 -0.211667 q 0,-0.328083 0.01058,-0.613833 0.01058,-0.296333 0.04233,-0.645583 -0.01058,-0.04233 -0.01058,-0.15875 0,-0.08467 -0.02117,-0.15875 -0.01058,-0.07408 -0.105834,-0.105834 0,0.201084 -0.03175,0.381 -0.03175,0.169334 -0.0635,0.328084 -0.04233,0.169333 -0.07408,0.338666 -0.02117,0.15875 -0.02117,0.338667 z m 0.98425,-1.312333 q -0.09525,-0.01058 -0.179916,-0.01058 -0.08467,-0.01058 -0.169334,0 -0.04233,0.03175 -0.127,0.01058 -0.09525,0 -0.105833,0.03175 0.03175,0.179916 0.03175,0.306916 0,0.08467 -0.01058,0.15875 0,0.07408 -0.01058,0.148167 -0.01058,0.07408 -0.02117,0.137583 0,0.0635 -0.01058,0.148167 0.01058,0.05292 0.01058,0.09525 0,0.04233 0,0.08467 0,0.08467 0,0.15875 0,0.07408 -0.01058,0.15875 -0.01058,0.08467 -0.01058,0.15875 0,0.07408 0,0.148166 0,0.22225 0.04233,0.391584 l 0.01058,0.01058 -0.05292,0.03175 -0.01058,0.01058 -0.179917,-0.01058 q -0.264583,-0.01058 -0.529167,0 -0.264583,0.01058 -0.497416,0.148167 0.01058,0.09525 0.02117,0.1905 0.01058,0.09525 0.03175,0.179917 0.02117,0.148166 0.04233,0.296333 0.02117,0.148167 0.03175,0.306917 0.137583,0.04233 0.264583,0.02117 0.127,-0.03175 0.264583,-0.07408 0.08467,-0.02117 0.169334,-0.04233 0.09525,-0.03175 0.179916,-0.03175 0.02117,0 0.05292,-0.01058 0.03175,-0.01058 0.05292,-0.02117 0.09525,-0.04233 0.148166,-0.01058 v 0.01058 q 0.01058,0.105833 0.01058,0.211666 0.01058,0.09525 0.01058,0.211667 0,0.328083 -0.03175,0.677333 -0.02117,0.34925 -0.04233,0.687917 -0.02117,0.211667 -0.03175,0.423333 -0.01058,0.201084 -0.02117,0.381 -0.01058,0.105834 -0.01058,0.22225 0,0.116417 0,0.232834 v 0.455083 q 0.148166,0 0.296333,-0.02117 0.15875,-0.03175 0.306917,-0.0635 0.137583,-0.02117 0.264583,-0.04233 0.137583,-0.03175 0.28575,-0.03175 0,-0.105833 0,-0.201083 0.01058,-0.105834 0.01058,-0.201084 0,-0.105833 -0.01058,-0.201083 0,-0.105833 0,-0.201083 v -0.402167 q 0,-0.116417 0,-0.243417 0,-0.127 0.01058,-0.254 V 74.31189 q 0,-0.169334 0.01058,-0.34925 0.02117,-0.1905 0.04233,-0.370417 0.01058,-0.116417 0.02117,-0.22225 0.01058,-0.116417 0.01058,-0.211667 0,-0.01058 0.01058,-0.01058 0,-0.03175 -0.01058,-0.0635 -0.01058,-0.03175 -0.02117,-0.0635 -0.03175,-0.0635 -0.03175,-0.137583 0,-0.0635 0.04233,-0.105834 0.201083,-0.0635 0.4445,-0.09525 0.243416,-0.03175 0.550333,-0.01058 0,0 0.02117,-0.04233 v -0.01058 q 0,-0.08467 -0.01058,-0.169333 0,-0.08467 -0.01058,-0.169333 0,-0.08467 -0.01058,-0.15875 0,-0.07408 0,-0.158751 0,-0.07408 0,-0.137583 0,-0.07408 0.02117,-0.15875 h -0.09525 q -0.4445,-0.0635 -0.910166,0 l -0.01058,-0.01058 q -0.05292,-0.03175 -0.05292,-0.08467 l 0.01058,-0.01058 q 0.03175,-0.07408 0.03175,-0.169334 0,-0.05292 0.02117,-0.15875 0.01058,-0.05292 0.01058,-0.08467 0,-0.04233 0,-0.08467 0,-0.15875 -0.01058,-0.28575 -0.01058,-0.137583 -0.02117,-0.275167 -0.01058,-0.127 -0.02117,-0.243416 0,-0.127 0,-0.264584 v -0.211666 q 0,-0.03175 -0.03175,-0.03175 -0.116416,0.02117 -0.243416,0.02117 -0.116417,-0.01058 -0.232834,-0.02117 z m 1.100667,1.5875 q -0.116417,0.02117 -0.22225,0.05292 -0.09525,0.03175 -0.148167,0.127 0.09525,-0.02117 0.1905,-0.01058 0.105834,0 0.211667,0.02117 0.169333,0.02117 0.3175,0.02117 0.15875,-0.01058 0.275167,-0.15875 h -0.105834 q -0.116416,0 -0.243416,-0.01058 -0.116417,-0.01058 -0.22225,-0.04233 z m 0.5715,0.423333 q 0,0.09525 -0.03175,0.169333 0.01058,0.05292 0.01058,0.105834 0.01058,0.04233 0.01058,0.09525 v 0.116417 q -0.01058,0.04233 -0.01058,0.127 0,0.116416 0.02117,0.211666 0.03175,0.08467 0.127,0.137584 0.02117,-0.15875 0.04233,-0.338667 0.03175,-0.1905 0.03175,-0.381 0,-0.306917 -0.09525,-0.560917 -0.07408,0.04233 -0.09525,0.105833 -0.01058,0.05292 -0.01058,0.116417 v 0.04233 z m -2.804583,1.3335 q -0.0635,0.02117 -0.127,0.04233 -0.0635,0.02117 -0.127,0.04233 v -0.01058 q -0.03175,0.02117 -0.07408,0.02117 -0.04233,0 -0.09525,0 -0.08467,0.01058 -0.15875,0.02117 -0.0635,0.01058 -0.09525,0.08467 h 0.22225 q 0.169334,-0.01058 0.3175,-0.02117 0.148167,-0.01058 0.328084,-0.0635 0.01058,-0.05292 0.03175,-0.08467 0.03175,-0.03175 0.05292,-0.0635 0.02117,-0.02117 0.02117,-0.03175 0.01058,-0.01058 0.02117,-0.02117 -0.08467,0.01058 -0.15875,0.04233 -0.07408,0.02117 -0.15875,0.04233 z m 1.68275,2.243667 q 0,0.243417 0,0.47625 0.01058,0.22225 0.02117,0.433917 0.01058,0.01058 0.04233,0.03175 0.04233,0.02117 0.0635,0.03175 0.01058,-0.105834 0.01058,-0.211667 0.01058,-0.105833 0.02117,-0.22225 0.04233,-0.370417 0.07408,-0.762 0.03175,-0.391583 0.03175,-0.772583 0,-0.243417 -0.02117,-0.47625 -0.01058,-0.243417 -0.0635,-0.465667 0,-0.02117 -0.01058,-0.05292 0,-0.03175 0,-0.05292 0,-0.02117 0,-0.04233 0.01058,-0.03175 0.01058,-0.05292 v -0.08467 q 0,-0.0635 -0.02117,-0.116417 -0.01058,-0.05292 -0.0635,-0.105833 0,0.03175 -0.01058,0.04233 v 0.03175 q 0,0.02117 0.02117,0.0635 l 0.01058,0.01058 h -0.01058 q -0.05292,0.53975 -0.08467,1.132416 -0.02117,0.592667 -0.02117,1.164167 z m 1.100666,-2.592917 q -0.01058,0.01058 -0.01058,0.02117 0,0.01058 -0.01058,0.02117 l -0.02117,0.02117 h -0.01058 q -0.0635,-0.01058 -0.169334,-0.02117 -0.105833,-0.02117 -0.232833,-0.02117 -0.116417,0 -0.243417,0.02117 -0.116416,0.02117 -0.22225,0.0635 0.02117,0.02117 0.0635,0.07408 0.04233,0.05292 0.0635,0.0635 0.09525,-0.02117 0.1905,-0.04233 0.09525,-0.02117 0.201084,-0.04233 0.116416,-0.02117 0.22225,-0.04233 0.116416,-0.02117 0.22225,-0.0635 -0.03175,-0.03175 -0.04233,-0.05292 z m -2.31775,3.77825 q -0.07408,-0.01058 -0.105833,0.09525 -0.01058,0.02117 -0.01058,0.03175 0,0.01058 -0.01058,0.02117 0.211667,-0.01058 0.41275,-0.05292 0.211667,-0.03175 0.402167,-0.08467 0.296333,-0.08467 0.582083,-0.127 -0.04233,-0.05292 -0.105833,-0.05292 -0.05292,-0.01058 -0.127,-0.01058 h -0.116417 q -0.08467,0.01058 -0.169333,0.03175 -0.08467,0.02117 -0.169333,0.04233 -0.148167,0.04233 -0.296334,0.07408 -0.137583,0.03175 -0.28575,0.03175 z" />
      <path
         id="path827"
         style="font-style:normal;font-weight:normal;font-size:5.64444447px;line-height:125%;font-family:Sans;letter-spacing:0px;word-spacing:0px;fill:none;fill-opacity:1;stroke:#ffc938;stroke-width:0.30000001;stroke-linecap:round;stroke-linejoin:round;stroke-miterlimit:4;stroke-dasharray:none;stroke-opacity:1"
         d="m 53.007663,69.295389 q 0.148166,-0.05292 0.3175,-0.03175 h 0.01058 l 0.02117,0.05292 q 0,0.02117 -0.01058,0.04233 -0.01058,0.01058 -0.01058,0.02117 0,0.01058 -0.01058,0.01058 0.04233,0.518584 0.0635,1.005417 0.02117,0.486833 0.02117,0.994833 0,0.211667 -0.01058,0.423334 0,0.211667 -0.01058,0.433917 0.04233,0 0.07408,0 0.03175,-0.01058 0.07408,-0.01058 0.211667,0 0.4445,0.02117 0.243417,0.01058 0.423334,0.127 0.08467,-0.01058 0.148166,0.02117 0.0635,0.02117 0.116417,0.0635 0.05292,0.02117 0.08467,0.05292 0.04233,0.02117 0.09525,0.03175 h 0.01058 q 0.211667,0.211667 0.370417,0.4445 0.15875,0.22225 0.275166,0.455084 0.137584,0.254 0.211667,0.529166 0.08467,0.275167 0.116417,0.550334 0.07408,0.243416 0.09525,0.465666 0.03175,0.211667 0.03175,0.4445 0,0.105834 -0.01058,0.211667 0,0.09525 -0.01058,0.201083 0.04233,0.08467 0.04233,0.1905 0,0.0635 -0.01058,0.08467 v 0.08467 q 0,0.137583 0.05292,0.211666 v 0.01058 q 0,0.07408 -0.04233,0.07408 -0.148166,0.05292 -0.296333,0.05292 -0.137583,0.01058 -0.28575,0 -0.127,0 -0.243417,0 -0.116416,0 -0.232833,0.03175 -0.05292,0.01058 -0.116417,0 -0.05292,0 -0.116416,0 -0.116417,0 -0.22225,0.01058 -0.105834,0.01058 -0.201084,0.0635 l -0.01058,0.01058 q -0.04233,-0.02117 -0.04233,-0.02117 0,-0.01058 -0.01058,-0.02117 0,0 0,-0.01058 0,-0.01058 0,-0.02117 0.01058,0 0.01058,-0.01058 0,-0.01058 0,-0.02117 0.01058,0 0.01058,-0.01058 0,-0.01058 -0.01058,-0.01058 0,0 0,-0.01058 l -0.01058,-0.01058 q -0.116416,-0.518584 -0.116416,-1.016 0,-0.264584 0.03175,-0.53975 -0.02117,-0.105834 -0.02117,-0.1905 -0.02117,-0.116417 -0.05292,-0.201084 -0.02117,-0.08467 -0.148166,-0.105833 -0.08467,0.04233 -0.09525,0.09525 0,0.05292 -0.03175,0.08467 -0.01058,0.02117 -0.02117,0.03175 -0.01058,0.01058 -0.01058,0.03175 -0.07408,0.254 -0.116417,0.53975 -0.04233,0.275166 -0.04233,0.560916 0,0.105834 0,0.211667 0.01058,0.09525 0.02117,0.201083 0.05292,0.05292 0.05292,0.148167 0,0.07408 -0.02117,0.127 -0.04233,0.03175 -0.07408,0.03175 -0.03175,0 -0.0635,-0.01058 -0.03175,0 -0.0635,-0.01058 -0.02117,0 -0.05292,0.01058 v 0.01058 q -0.127,0.02117 -0.264583,0.03175 -0.127,0.01058 -0.243417,0 -0.3175,0.08467 -0.5715,0.116417 -0.243416,0.03175 -0.433916,0.03175 h -0.01058 v -0.01058 q -0.07408,-0.179916 -0.09525,-0.381 -0.01058,-0.201083 -0.02117,-0.402166 0,-0.148167 -0.01058,-0.306917 -0.01058,-0.15875 -0.05292,-0.306917 0,-0.169333 -0.01058,-0.328083 0,-0.169333 -0.01058,-0.338667 -0.03175,-0.328083 -0.03175,-0.677333 0,-0.09525 0,-0.1905 0,-0.09525 0.01058,-0.1905 -0.03175,-0.582083 -0.05292,-1.17475 -0.01058,-0.592667 -0.02117,-1.185334 -0.01058,-0.402166 -0.02117,-0.814916 0,-0.423334 -0.02117,-0.846667 l -0.01058,-0.01058 v -0.01058 -0.01058 -0.02117 q 0,-0.02117 0.02117,-0.03175 0.02117,-0.02117 0.04233,-0.03175 0.03175,0 0.05292,-0.03175 h 0.01058 q 0.232834,-0.05292 0.455084,-0.0635 0.22225,-0.02117 0.465666,-0.03175 0.116417,-0.01058 0.22225,-0.01058 0.116417,-0.01058 0.232834,-0.02117 z m -1.27,4.434417 q 0,0.08467 0,0.169334 0,0.08467 -0.01058,0.169333 0.02117,0.15875 0.02117,0.3175 0,0.148167 0.01058,0.306917 0,0.148166 0,0.306916 0.01058,0.148167 0.02117,0.306917 0.04233,0.148167 0.04233,0.28575 0.01058,0.137583 0.02117,0.275167 0,0.1905 0.01058,0.370416 0.02117,0.169334 0.09525,0.338667 0.01058,-0.02117 0.02117,-0.05292 0.02117,-0.02117 0.04233,-0.05292 0.02117,-0.04233 0.04233,-0.07408 0.02117,-0.08467 0.02117,-0.169333 0,-0.08467 0,-0.169333 0,-0.137584 -0.01058,-0.275167 0,-0.137583 -0.01058,-0.264583 l -0.01058,-0.09525 q -0.02117,-0.613834 -0.05292,-1.23825 -0.03175,-0.635 -0.0635,-1.27 -0.03175,-0.4445 -0.0635,-0.889 -0.02117,-0.444501 -0.04233,-0.889001 0.02117,-0.148166 0.03175,-0.296333 0.01058,-0.15875 0.03175,-0.306917 0.02117,-0.201083 0.04233,-0.402166 0.02117,-0.201084 0.02117,-0.391584 -0.02117,0 -0.15875,-0.04233 -0.127,-0.05292 -0.148166,-0.05292 0.01058,0.05292 0.01058,0.09525 0,0.03175 0,0.08467 0,0.07408 0,0.148167 0,0.07408 -0.01058,0.148166 v 0.28575 q 0,0.105834 0,0.211667 0,0.09525 0.01058,0.211667 v 0.338666 q 0,0.3175 0.01058,0.645584 0.01058,0.3175 0.03175,0.635 0.02117,0.3175 0.03175,0.645583 0.01058,0.3175 0.01058,0.635 z m 1.23825,-4.328583 q -0.105834,0.01058 -0.211667,0.02117 -0.09525,0.01058 -0.1905,0 -0.09525,0.03175 -0.1905,0.04233 -0.09525,0 -0.1905,-0.01058 -0.105833,0 -0.201083,0.01058 -0.09525,0 -0.1905,0.04233 -0.03175,0.02117 -0.07408,0.02117 0.05292,0.01058 0.137584,0.05292 0.08467,0.05292 0.169333,0.08467 0.09525,0.02117 0.179917,-0.0635 h 0.01058 q 0.08467,0 0.169333,-0.01058 0.09525,-0.01058 0.179917,-0.02117 0.127,-0.02117 0.254,-0.03175 0.127,-0.01058 0.243417,0 0.02117,-0.02117 0.02117,-0.03175 0.01058,-0.01058 0.03175,-0.03175 0.05292,-0.05292 0.0635,-0.09525 -0.05292,0 -0.105833,0.01058 -0.05292,0 -0.105833,0.01058 z m -0.02117,0.275166 q -0.03175,-0.01058 -0.0635,-0.01058 -0.03175,-0.01058 -0.08467,0 -0.07408,0.02117 -0.148166,0.02117 -0.0635,0 -0.148167,0.01058 -0.116417,0 -0.22225,0.01058 -0.105833,0.01058 -0.201083,0.0635 -0.0635,0.402167 -0.105834,0.783167 -0.04233,0.370417 -0.04233,0.740833 0,0.127 0,0.254 0.01058,0.127 0.02117,0.254 0.05292,0.603251 0.08467,1.185334 0.03175,0.5715 0.05292,1.143 0.02117,0.518583 0.04233,1.04775 0.03175,0.518583 0.07408,1.058333 0.01058,0 0.07408,0.01058 0.0635,0 0.148167,0 h 0.201083 q 0.116417,0.02117 0.22225,0 0.105833,-0.02117 0.211667,-0.04233 0.07408,-0.01058 0.137583,-0.02117 0.07408,-0.01058 0.148167,-0.01058 0,-0.01058 -0.01058,-0.0635 0,-0.05292 -0.01058,-0.105833 -0.01058,-0.0635 -0.01058,-0.137583 -0.02117,-0.1905 -0.04233,-0.370417 -0.02117,-0.179917 -0.04233,-0.391583 0.04233,-0.15875 0.0635,-0.3175 0.04233,-0.211667 0.09525,-0.41275 0.05292,-0.201084 0.211667,-0.370417 l 0.02117,-0.01058 q 0.09525,-0.05292 0.201084,-0.08467 0.105833,-0.03175 0.22225,0.03175 0.201083,0.07408 0.275166,0.264583 0.08467,0.179917 0.137584,0.381 l 0.03175,0.127 q 0.01058,0.148167 0.02117,0.296334 0.01058,0.148166 0.03175,0.306916 0.02117,0.211667 0.03175,0.433917 0.02117,0.22225 0.02117,0.455083 0.02117,0 0.03175,-0.01058 0.02117,0 0.03175,0 0.02117,-0.01058 0.04233,0.01058 0.15875,-0.02117 0.359834,0 0.148166,0 0.306916,0 0.15875,-0.01058 0.296334,-0.07408 v -0.09525 q 0,-0.07408 -0.01058,-0.137583 0,-0.07408 -0.01058,-0.148167 -0.01058,-0.07408 -0.02117,-0.137583 0,-0.07408 0,-0.148167 v -0.05292 -0.105833 q -0.02117,-0.232833 -0.04233,-0.4445 -0.01058,-0.211667 -0.0635,-0.41275 -0.07408,-0.243417 -0.211667,-0.455083 -0.137583,-0.211667 -0.296333,-0.423334 -0.08467,-0.116416 -0.169333,-0.232833 -0.08467,-0.127 -0.15875,-0.243417 -0.169334,-0.211666 -0.381,-0.296333 -0.211667,-0.09525 -0.423334,-0.116417 -0.201083,-0.02117 -0.391583,0.01058 -0.179917,0.03175 -0.296333,0.0635 v 0.01058 l -0.01058,-0.01058 q -0.02117,-0.01058 -0.05292,-0.01058 -0.05292,0 -0.07408,-0.03175 -0.01058,-0.01058 -0.01058,-0.03175 0,-0.02117 0.01058,-0.02117 0.01058,-0.01058 0.02117,-0.03175 0.01058,0 0.02117,-0.01058 -0.03175,-0.105833 -0.04233,-0.22225 0,-0.116416 -0.01058,-0.232833 0,-0.09525 -0.01058,-0.179917 0,-0.08467 -0.02117,-0.15875 -0.02117,-0.306917 -0.03175,-0.582083 -0.01058,-0.28575 -0.01058,-0.560917 0,-0.264583 0.01058,-0.508 0.01058,-0.243417 0.03175,-0.486833 -0.02117,0 -0.03175,0 -0.01058,-0.01058 -0.03175,-0.01058 z m 0.179917,0.09525 q 0,0.08467 -0.03175,0.148167 0,0.201083 -0.01058,0.391583 0,0.1905 0,0.391584 0,0.455083 0.02117,0.910166 0.03175,0.444501 0.116417,0.878417 0.01058,-0.02117 0.02117,-0.04233 0.01058,-0.03175 0.01058,-0.05292 v -0.02117 l -0.01058,-0.01058 q 0.02117,-0.306916 0.03175,-0.613833 0.01058,-0.306917 0.01058,-0.613834 0,-0.8255 -0.0635,-1.608666 -0.05292,0.05292 -0.07408,0.116416 -0.01058,0.05292 -0.02117,0.127 z m 1.418166,2.751667 q -0.497416,-0.179916 -1.090083,-0.169333 -0.0635,0.02117 -0.09525,0.07408 -0.02117,0.04233 -0.04233,0.105834 -0.02117,0.0635 -0.03175,0.08467 0.05292,0 0.105833,0 0.05292,-0.01058 0.105833,-0.02117 0.137584,-0.02117 0.264584,-0.03175 0.137583,-0.02117 0.264583,0 0.201083,0.03175 0.359833,0.127 0.169334,0.09525 0.306917,0.232833 0.137583,0.137583 0.243417,0.306917 0.116416,0.169333 0.232833,0.338666 0.08467,0.127 0.15875,0.243417 0.07408,0.116417 0.15875,0.22225 0.15875,0.275167 0.1905,0.592667 0.04233,0.3175 0.05292,0.635 0.01058,0.201083 0.02117,0.402166 0.01058,0.1905 0.04233,0.370417 v 0.0635 q -0.01058,0.03175 -0.01058,0.09525 0,0.08467 0.05292,0.105833 v -0.05292 q 0,-0.02117 0.01058,-0.03175 0.01058,-0.03175 0.01058,-0.09525 0,-0.137584 -0.04233,-0.275167 0.01058,-0.08467 0.01058,-0.148167 0.01058,-0.07408 0.01058,-0.15875 0,-0.47625 -0.105833,-0.92075 -0.09525,-0.4445 -0.201084,-0.846666 -0.169333,-0.34925 -0.402166,-0.6985 -0.22225,-0.34925 -0.582084,-0.550334 z M 53.38866,75.23264 q 0,0.22225 0.02117,0.423333 0.02117,0.1905 0.04233,0.34925 0.02117,0.02117 0.02117,0.05292 0,0.03175 0.01058,0.0635 0.01058,0.02117 0.01058,0.05292 v -0.02117 -0.391584 q 0,-0.264583 0.02117,-0.529166 0.03175,-0.264584 0.116416,-0.486834 v -0.01058 q 0.01058,-0.02117 0.01058,-0.04233 0.01058,-0.03175 0.02117,-0.05292 0.03175,-0.09525 0.08467,-0.179917 0.05292,-0.09525 0.179917,-0.105833 0.169333,0.02117 0.201083,0.137583 0.04233,0.105834 0.0635,0.232834 0.01058,0.05292 0.01058,0.09525 0,0.04233 0.02117,0.09525 -0.01058,0.148166 -0.02117,0.296333 0,0.148167 0,0.296333 0,0.465667 0.09525,0.931334 h 0.01058 q 0.105833,-0.105834 0.137583,-0.232834 0.04233,-0.137583 0.04233,-0.28575 0,-0.105833 -0.01058,-0.211666 -0.01058,-0.105834 -0.03175,-0.22225 -0.02117,-0.07408 -0.03175,-0.137584 0,-0.07408 -0.01058,-0.137583 0.01058,-0.03175 0.01058,-0.08467 0,-0.582083 -0.275167,-1.005416 -0.04233,-0.03175 -0.09525,-0.04233 -0.04233,-0.01058 -0.09525,-0.02117 l -0.127,-0.03175 q -0.148166,0.02117 -0.22225,0.15875 -0.0635,0.127 -0.116416,0.275166 -0.05292,0.201084 -0.07408,0.402167 -0.02117,0.1905 -0.02117,0.370417 z m 0.08467,1.185333 q -0.04233,-0.05292 -0.09525,-0.09525 -0.05292,-0.05292 -0.105833,-0.03175 h 0.01058 q -0.148166,0.0635 -0.306916,0.07408 -0.15875,0 -0.306917,-0.01058 -0.116417,-0.01058 -0.232833,-0.01058 -0.105834,0 -0.22225,0.02117 -0.01058,0.01058 -0.0635,0.105834 -0.05292,0.09525 -0.07408,0.116416 0.169334,0 0.338667,-0.03175 0.169333,-0.02117 0.338667,-0.05292 0.179916,-0.03175 0.359833,-0.05292 0.179917,-0.03175 0.359833,-0.03175 z m 2.0955,-0.137583 q -0.105833,0.04233 -0.232833,0.05292 -0.116417,0 -0.232833,0 -0.09525,-0.01058 -0.179917,0 -0.08467,0 -0.169333,0.02117 -0.03175,-0.01058 -0.09525,-0.01058 -0.04233,0 -0.08467,0 -0.04233,0 -0.08467,-0.02117 -0.01058,0.02117 -0.04233,0.08467 -0.02117,0.0635 -0.03175,0.09525 0.116417,-0.03175 0.254,-0.01058 h 0.1905 q 0.116417,-0.04233 0.243417,-0.04233 0.137583,0 0.264583,0 0.116417,0.01058 0.211667,0.01058 0.105833,-0.01058 0.201083,-0.03175 -0.01058,-0.01058 -0.05292,-0.07408 -0.02117,-0.05292 -0.05292,-0.07408 -0.03175,-0.03175 -0.09525,0 z" />
      <path
         id="path829"
         style="font-style:normal;font-weight:normal;font-size:5.64444447px;line-height:125%;font-family:Sans;letter-spacing:0px;word-spacing:0px;fill:none;fill-opacity:1;stroke:#ffc938;stroke-width:0.30000001;stroke-linecap:round;stroke-linejoin:round;stroke-miterlimit:4;stroke-dasharray:none;stroke-opacity:1"
         d="m 57.8502,72.226973 q 0.148167,-0.04233 0.306917,-0.03175 0.15875,0 0.306917,0.02117 0.201083,0.03175 0.381,0.03175 h 0.01058 q 0.03175,0.03175 0.09525,0.03175 h 0.01058 q 0.41275,0.169333 0.613834,0.41275 0.211666,0.232833 0.296333,0.423333 0.07408,0.148167 0.127,0.28575 0.03175,0.07408 0.05292,0.148167 0.03175,0.0635 0.07408,0.127 0.02117,0.04233 0.02117,0.105833 0,0.07408 -0.01058,0.116417 -0.02117,0.08467 -0.02117,0.127 v 0.02117 q -0.02117,0.296334 -0.08467,0.5715 -0.0635,0.264584 -0.137583,0.53975 l -0.127,0.4445 q -0.03175,0.127 -0.08467,0.264584 -0.05292,0.137583 -0.137583,0.264583 -0.08467,0.127 -0.201084,0.232833 -0.116416,0.09525 -0.275166,0.148167 v 0.01058 q -0.09525,0.01058 -0.232834,0.05292 -0.127,0.04233 -0.264583,0.0635 -0.127,0.03175 -0.243417,0 -0.08467,0.02117 -0.169333,0 -0.07408,-0.01058 -0.15875,-0.03175 -0.05292,-0.02117 -0.116417,-0.03175 -0.0635,-0.01058 -0.127,-0.01058 h -0.01058 v -0.01058 q -0.09525,-0.0635 -0.211667,-0.09525 -0.08467,-0.03175 -0.169333,-0.0635 -0.08467,-0.04233 -0.137583,-0.137583 -0.370417,-0.1905 -0.60325,-0.560917 -0.22225,-0.381 -0.22225,-0.783166 -0.01058,-0.07408 -0.01058,-0.148167 0,-0.07408 0,-0.148167 0,-0.79375 0.402167,-1.439333 0.0635,-0.148167 0.169333,-0.296333 0.105834,-0.15875 0.22225,-0.296334 0.03175,-0.04233 0.05292,-0.07408 0.03175,-0.03175 0.0635,-0.07408 0.09525,-0.08467 0.211667,-0.116417 0.116416,-0.04233 0.232833,-0.07408 z m 1.090084,0.169333 q -0.359834,-0.07408 -0.740834,-0.08467 -0.381,-0.01058 -0.719666,0.137583 -0.01058,0.01058 -0.02117,0.01058 0,0 -0.01058,0.01058 l -0.02117,0.02117 q -0.0635,0.05292 -0.127,0.116417 -0.05292,0.05292 -0.09525,0.137583 -0.22225,0.232834 -0.34925,0.518584 -0.116417,0.275166 -0.22225,0.550333 -0.02117,0.04233 -0.03175,0.07408 -0.01058,0.02117 -0.01058,0.03175 0,0.01058 -0.01058,0.02117 -0.01058,0.01058 -0.01058,0.02117 -0.0635,0.381 -0.0635,0.6985 0,0.22225 0.03175,0.423333 0.05292,0.306917 0.179917,0.550333 0.137583,0.232834 0.34925,0.402167 0.05292,0.02117 0.105833,0.0635 0.0635,0.03175 0.116417,0.07408 0.0635,0.05292 0.127,0.09525 0.0635,0.03175 0.137583,0.05292 h 0.01058 q 0.07408,0.08467 0.169334,0.116417 0.105833,0.02117 0.22225,0.04233 0.04233,0.01058 0.08467,0.02117 0.04233,0 0.08467,0.02117 0.179917,0.03175 0.328083,0 0.15875,-0.02117 0.3175,-0.05292 0.0635,-0.02117 0.127,-0.03175 0.0635,-0.01058 0.127,-0.02117 0.275167,-0.09525 0.423334,-0.34925 0.148166,-0.254 0.243416,-0.560917 0.0635,-0.3175 0.15875,-0.60325 0.07408,-0.254 0.127,-0.508 0.02117,-0.0635 0.02117,-0.116416 0,-0.0635 0,-0.127 0,-0.08467 0,-0.15875 0.01058,-0.08467 0.03175,-0.169334 -0.09525,-0.201083 -0.15875,-0.391583 -0.05293,-0.137576 -0.116431,-0.27516 -0.05292,-0.137583 -0.137583,-0.264583 h -0.01058 q -0.148167,-0.148167 -0.3175,-0.28575 -0.169334,-0.148167 -0.34925,-0.211667 z m -1.068917,0 q 0.116417,-0.08467 0.243417,-0.0635 0.137583,0.01058 0.254,0.05292 0.07408,0.02117 0.137583,0.04233 0.07408,0.02117 0.148167,0.02117 0.08467,-0.03175 0.15875,0.01058 0.07408,0.03175 0.137583,0.08467 0.07408,0.05292 0.148167,0.09525 h 0.01058 q 0.508,0.254 0.6985,0.814917 0.08467,0.306916 0.08467,0.656166 0,0.1905 -0.03175,0.41275 -0.03175,0.116417 -0.0635,0.232834 -0.02117,0.105833 -0.04233,0.22225 -0.05292,0.264583 -0.127,0.518583 -0.07408,0.254 -0.254,0.455083 -0.0635,0.148167 -0.179916,0.22225 -0.116417,0.07408 -0.243417,0.127 -0.116417,0.04233 -0.1905,0.08467 l -0.01058,0.01058 q -0.03175,0 -0.07408,0.01058 -0.03175,0 -0.07408,0 -0.116417,0.02117 -0.243417,0.03175 -0.116416,0.01058 -0.211666,-0.03175 -0.169334,-0.02117 -0.359834,-0.07408 -0.1905,-0.05292 -0.370416,-0.148166 -0.179917,-0.09525 -0.338667,-0.22225 -0.15875,-0.137584 -0.264583,-0.328084 -0.1905,-0.53975 -0.1905,-1.11125 0,-0.4445 0.127,-0.814916 0.09525,-0.4445 0.402166,-0.804334 0.3175,-0.359833 0.719667,-0.508 z m 0.1905,0.0635 q -0.370417,0.05292 -0.635,0.338667 -0.264583,0.28575 -0.47625,0.60325 -0.211667,0.486833 -0.211667,1.0795 v 0.04233 q 0,0.275167 0.04233,0.550334 0.04233,0.264583 0.127,0.508 0.116416,0.22225 0.328083,0.34925 0.22225,0.127 0.433917,0.22225 l 0.04233,0.02117 q 0.01058,0.01058 0.01058,0.01058 0.01058,0 0.02117,0.01058 l 0.01058,0.01058 q 0,0 0.08467,0.02117 0.08467,0.01058 0.179917,0.03175 0.105833,0.02117 0.1905,0.04233 0.08467,0.02117 0.08467,0.02117 0,0 0.0635,-0.01058 0.07408,-0.01058 0.148167,-0.01058 0.08467,-0.01058 0.148167,-0.01058 0.07408,-0.01058 0.07408,-0.01058 0,0 0.0635,-0.03175 0.0635,-0.04233 0.137583,-0.07408 0.08467,-0.04233 0.148167,-0.07408 0.07408,-0.03175 0.07408,-0.03175 0.0635,-0.07408 0.105834,-0.148167 0.05292,-0.07408 0.105833,-0.15875 0.03175,-0.05292 0.05292,-0.09525 0.03175,-0.04233 0.07408,-0.09525 l 0.03175,-0.116416 q 0.09525,-0.328084 0.179917,-0.677334 0.08467,-0.359833 0.08467,-0.709083 0,-0.254 -0.0635,-0.497417 -0.0635,-0.243416 -0.22225,-0.455083 -0.232833,-0.22225 -0.47625,-0.391583 -0.232833,-0.169334 -0.518583,-0.1905 -0.07408,0.02117 -0.137583,0 -0.05292,-0.02117 -0.105834,-0.04233 -0.05292,-0.02117 -0.105833,-0.03175 -0.04233,-0.02117 -0.09525,0 z m -0.09525,1.016 q 0.08467,-0.05292 0.201083,-0.04233 0.116417,0 0.201084,0.05292 0.105833,0.03175 0.179916,0.105833 0.07408,0.0635 0.15875,0.137583 0.03175,0.03175 0.05292,0.0635 0.03175,0.03175 0.0635,0.05292 0.07408,0.08467 0.09525,0.179917 0.02117,0.09525 0.02117,0.201083 0,0.0635 -0.01058,0.137583 0,0.0635 -0.01058,0.137584 l -0.03175,0.254 q -0.02117,0.338666 -0.41275,0.47625 -0.381,0.148166 -0.73025,-0.116417 -0.09525,-0.116417 -0.127,-0.243417 -0.03175,-0.137583 -0.05292,-0.28575 -0.01058,-0.07408 -0.02117,-0.137583 -0.01058,-0.07408 -0.03175,-0.15875 h -0.01058 q 0.03175,-0.211667 0.127,-0.4445 0.09525,-0.243417 0.338667,-0.370417 z m -0.338667,0.878417 q 0,0.402167 0.243417,0.709083 0.148167,0.09525 0.328083,0.09525 0.1905,-0.01058 0.370417,-0.09525 0.15875,-0.08467 0.1905,-0.254 0.04233,-0.169333 0.05292,-0.34925 0,-0.07408 0,-0.137583 0.01058,-0.0635 0.02117,-0.127 -0.02117,-0.03175 -0.04233,-0.07408 -0.01058,-0.04233 -0.03175,-0.08467 -0.03175,-0.08467 -0.08467,-0.169333 -0.04233,-0.08467 -0.127,-0.137584 -0.179916,-0.15875 -0.529166,-0.15875 -0.254,0.15875 -0.3175,0.370417 v 0.01058 q -0.03175,0.09525 -0.05292,0.201084 -0.02117,0.105833 -0.02117,0.201083 z m 0.423334,-0.73025 v 0.01058 q 0.328083,0.03175 0.60325,0.306917 0.07408,0.116417 0.116416,0.264583 0.05292,0.137584 0,0.28575 -0.08467,0.179917 -0.201083,0.338667 -0.116417,0.15875 -0.3175,0.211667 -0.116417,-0.02117 -0.243417,-0.04233 -0.116416,-0.03175 -0.179916,-0.148166 l -0.127,-0.306917 q 0.01058,-0.05292 0.01058,-0.09525 0.01058,-0.05292 0.01058,-0.105833 0.02117,-0.211667 0.0635,-0.402167 0.04233,-0.1905 0.254,-0.306917 z m 0.264583,0.232833 q -0.05292,-0.04233 -0.116417,-0.0635 -0.0635,-0.03175 -0.137583,-0.01058 -0.169333,0.116417 -0.201083,0.306917 -0.03175,0.1905 -0.03175,0.370416 v 0.03175 q 0,0.02117 -0.01058,0.03175 0,0.01058 0,0.02117 0.05292,0.0635 0.07408,0.137583 0.02117,0.09525 0.07408,0.148167 0.08467,0.05292 0.201083,0.07408 0.127,0.02117 0.232834,-0.05292 0.08467,-0.09525 0.179916,-0.22225 0.105834,-0.137584 0.105834,-0.306917 0,-0.04233 -0.01058,-0.0635 v -0.01058 q -0.04233,-0.09525 -0.08467,-0.179917 -0.04233,-0.08467 -0.127,-0.148167 -0.04233,-0.01058 -0.07408,-0.02117 -0.03175,-0.02117 -0.07408,-0.04233 z" />
      <path
         id="path831"
         style="font-style:normal;font-weight:normal;font-size:5.64444447px;line-height:125%;font-family:Sans;letter-spacing:0px;word-spacing:0px;fill:none;fill-opacity:1;stroke:#ffc938;stroke-width:0.30000001;stroke-linecap:round;stroke-linejoin:round;stroke-miterlimit:4;stroke-dasharray:none;stroke-opacity:1"
         d="m 63.128804,71.666056 q 0.169333,-0.0635 0.359833,-0.0635 0.201084,0 0.391584,0.07408 0.1905,0.0635 0.34925,0.1905 0.169333,0.116417 0.28575,0.285751 v 0.01058 q 0.02117,0.0635 0.05292,0.116417 0.03175,0.05292 0.0635,0.105833 0.04233,0.0635 0.07408,0.127 0.04233,0.0635 0.04233,0.148167 0,0.03175 -0.01058,0.05292 0.02117,0.0635 0.03175,0.137584 0.01058,0.07408 0.02117,0.148166 0.02117,0.07408 0.02117,0.148167 0.01058,0.07408 0.03175,0.137583 0.03175,0.254 0.04233,0.497417 0.01058,0.243417 0.01058,0.486833 0,0.433917 -0.03175,0.85725 -0.02117,0.423334 -0.05292,0.867834 l -0.01058,0.02117 q 0.01058,0.01058 0.01058,0.04233 0,0.0635 -0.02117,0.169333 -0.02117,0.105833 -0.02117,0.15875 v 0.0635 l 0.01058,0.01058 h -0.01058 q -0.08467,0.07408 -0.169334,0.07408 -0.08467,0 -0.169333,-0.01058 -0.04233,-0.01058 -0.08467,-0.02117 -0.04233,0 -0.08467,0.01058 h -0.338667 q -0.22225,0.01058 -0.455083,0.02117 -0.22225,0.01058 -0.4445,0.07408 l -0.01058,0.01058 v -0.01058 q -0.03175,-0.03175 -0.03175,-0.07408 0,-0.02117 0,-0.03175 0.01058,-0.02117 0.01058,-0.04233 0.01058,-0.02117 0.01058,-0.0635 0,-0.04233 -0.01058,-0.05292 l -0.01058,-0.01058 q -0.05292,-0.232833 -0.0635,-0.465666 -0.01058,-0.243417 -0.03175,-0.497417 -0.01058,-0.22225 -0.03175,-0.4445 -0.01058,-0.22225 -0.05292,-0.433917 -0.03175,-0.169333 -0.105834,-0.34925 -0.07408,-0.1905 -0.275166,-0.243416 -0.07408,0.05292 -0.09525,0.211666 v 0.232834 q -0.01058,0.243416 -0.02117,0.486833 -0.01058,0.243417 -0.01058,0.486833 0,0.169334 0,0.338667 0.01058,0.15875 0.02117,0.338667 0,0.04233 0,0.08467 0,0.04233 -0.01058,0.09525 0,0.137584 -0.03175,0.264584 -0.02117,0.116416 -0.137584,0.1905 l -0.01058,0.01058 q -0.08467,0.01058 -0.15875,0 -0.07408,-0.01058 -0.148167,-0.02117 -0.05292,-0.01058 -0.09525,-0.02117 -0.03175,0 -0.08467,0 -0.254,0.04233 -0.518584,0.0635 -0.148166,0.02117 -0.306916,0.03175 -0.148167,0.02117 -0.296334,0.0635 h -0.01058 v -0.01058 q -0.02117,-0.04233 -0.02117,-0.0635 0,-0.03175 0.04233,-0.07408 0.02117,-0.02117 0.02117,-0.03175 -0.01058,0 -0.01058,-0.01058 0,0 -0.01058,-0.02117 0,-0.01058 -0.01058,-0.02117 0,-0.01058 0,-0.02117 v -0.02117 l 0.03175,-0.03175 v -0.05292 q 0,-0.08467 0.01058,-0.127 0.01058,-0.03175 0.01058,-0.05292 0.01058,-0.03175 0.01058,-0.0635 0,-0.02117 -0.01058,-0.03175 0.02117,-0.254 0.02117,-0.518584 0.01058,-0.264583 0.02117,-0.529166 0,-0.179917 0,-0.34925 0.01058,-0.169334 0.01058,-0.34925 0.04233,-0.243417 0.05292,-0.47625 0.02117,-0.232834 0.02117,-0.465667 0,-0.529167 -0.09525,-1.005417 0.01058,-0.02117 0.01058,-0.05292 0,-0.05292 -0.01058,-0.116417 -0.01058,-0.0635 -0.03175,-0.116417 -0.02117,-0.05292 -0.04233,-0.116416 -0.01058,-0.0635 -0.01058,-0.116417 v -0.02117 l 0.03175,0.01058 q 0.05292,0.02117 0.09525,0.02117 0.05292,-0.01058 0.105834,-0.03175 0.05292,-0.01058 0.08467,-0.02117 0.04233,-0.01058 0.09525,0 0.22225,-0.03175 0.433917,-0.04233 0.211667,-0.01058 0.423333,-0.02117 0.116417,-0.01058 0.243417,-0.01058 0.127,0 0.254,-0.01058 h 0.01058 q 0.02117,0.01058 0.09525,0.01058 0.04233,0 0.0635,0.01058 h 0.02117 l -0.01058,0.01058 v 0.03175 q 0,0.04233 0.04233,0.127 0,0.01058 0.02117,0.05292 0.02117,-0.02117 0.04233,-0.04233 0.03175,-0.02117 0.05292,-0.04233 0.116417,-0.08467 0.232833,-0.15875 0.127,-0.08467 0.275167,-0.116417 z m -1.005417,0.22225 q -0.116417,0.02117 -0.243417,0.03175 -0.116416,0 -0.232833,0 -0.179917,-0.02117 -0.338667,0.01058 -0.05292,0.01058 -0.09525,0.01058 -0.04233,0 -0.09525,0 -0.09525,0.01058 -0.179916,0.02117 -0.08467,0.01058 -0.15875,0.04233 0.04233,0.03175 0.105833,0.03175 0.116417,0.03175 0.232833,0.03175 0.116417,0 0.232834,-0.01058 0.127,-0.01058 0.254,-0.01058 0.127,-0.01058 0.254,0.03175 0.07408,-0.04233 0.169333,-0.05292 0.105833,-0.02117 0.201084,0 0.02117,-0.02117 0.02117,-0.03175 0.05292,-0.05292 0.05292,-0.08467 v -0.01058 h -0.105833 q -0.04233,0 -0.07408,-0.01058 z m -1.407583,3.33375 q 0,0.09525 0,0.1905 0,0.09525 -0.01058,0.179917 0,0.116417 -0.01058,0.22225 0,0.105833 -0.01058,0.22225 -0.01058,0.09525 -0.01058,0.1905 0,0.09525 0,0.179917 0.08467,-0.08467 0.105834,-0.1905 0.02117,-0.105834 0.02117,-0.22225 v -0.127 l -0.01058,-0.116417 q 0,-0.07408 -0.01058,-0.137583 0,-0.0635 0,-0.137584 0,-0.07408 0,-0.137583 0.01058,-0.07408 0.01058,-0.137583 0,-0.07408 0,-0.137584 0.01058,-0.07408 0.01058,-0.148166 0,-0.0635 -0.01058,-0.105834 0.05292,-0.338666 0.0635,-0.66675 0.01058,-0.338666 0.01058,-0.66675 0.01058,-0.232833 0.01058,-0.465666 0,-0.243417 0.02117,-0.486834 l 0.01058,-0.01058 q 0,-0.03175 -0.02117,-0.07408 -0.02117,-0.0635 -0.02117,-0.08467 0,-0.02117 0.03175,-0.07408 v -0.04233 -0.04233 q -0.02117,-0.03175 -0.0635,-0.04233 -0.03175,-0.01058 -0.07408,-0.02117 -0.0635,-0.02117 -0.08467,-0.03175 0.04233,0.328083 0.07408,0.66675 0.04233,0.338667 0.04233,0.677333 0,0.09525 0,0.1905 0,0.09525 -0.02117,0.179917 -0.03175,0.201083 -0.04233,0.41275 -0.01058,0.201083 -0.01058,0.41275 v 0.296333 z m 1.5875,-2.487083 q -0.03175,0 -0.0635,-0.03175 h -0.01058 q -0.01058,-0.137583 -0.01058,-0.243417 V 72.21639 q 0,-0.01058 -0.02117,-0.03175 -0.01058,-0.01058 -0.03175,-0.05292 -0.02117,0 -0.04233,0.01058 -0.02117,0 -0.04233,0 -0.02117,0.01058 -0.0635,0.01058 -0.02117,0.03175 -0.05292,0.04233 -0.03175,0.01058 -0.05292,0.02117 l -0.02117,0.01058 -0.01058,-0.01058 q -0.201083,-0.08467 -0.402166,-0.07408 -0.1905,0.01058 -0.338667,0.03175 -0.05292,0.04233 -0.137583,0.04233 0.01058,0.07408 0.01058,0.148166 0.01058,0.07408 0.01058,0.15875 0,0.116417 -0.01058,0.243417 -0.01058,0.127 -0.02117,0.243417 -0.01058,0.116416 -0.02117,0.232833 -0.01058,0.116417 -0.01058,0.232833 v 0.05292 q 0,0.03175 0,0.0635 0.01058,0.02117 0.01058,0.05292 0,0.254 -0.01058,0.508 -0.01058,0.254 -0.03175,0.497416 -0.02117,0.243417 -0.03175,0.497417 -0.01058,0.243417 -0.01058,0.497417 v 0.211666 l 0.02117,0.02117 0.01058,0.01058 -0.01058,0.01058 v 0.05292 q 0,0.03175 0.02117,0.116417 0.02117,0.0635 0.02117,0.105833 0,0.03175 -0.01058,0.04233 0.07408,-0.01058 0.148166,-0.02117 0.07408,-0.01058 0.148167,-0.03175 0.148167,-0.03175 0.296333,-0.05292 0.148167,-0.02117 0.306917,0 0.01058,-0.01058 0.04233,-0.01058 0.03175,0 0.07408,0.02117 0,-0.08467 0,-0.169334 0.01058,-0.09525 0.01058,-0.179916 0.03175,-0.41275 0.03175,-0.79375 0,-0.0635 0,-0.127 0,-0.07408 -0.01058,-0.148167 0.07408,-0.296333 0.07408,-0.677333 0,-0.08467 0,-0.179917 0,-0.09525 -0.02117,-0.1905 v -0.01058 l 0.127001,-0.08467 q 0.201083,-0.0635 0.370416,-0.07408 0.179917,-0.01058 0.34925,0.148166 0.148167,0.148167 0.1905,0.338667 0.04233,0.1905 0.07408,0.381 0.01058,0.05292 0.01058,0.105833 0.01058,0.05292 0.02117,0.105834 v 0.09525 q 0,0.148166 0.02117,0.306916 0.03175,0.148167 0.0635,0.296334 0.03175,0.15875 0.05292,0.328083 0.03175,0.15875 0.03175,0.328083 0,0.05292 0,0.105834 0,0.05292 -0.01058,0.105833 0.254,-0.04233 0.518583,-0.07408 0.275167,-0.03175 0.53975,-0.01058 0,-0.01058 -0.01058,-0.01058 0,-0.01058 0,-0.02117 0,-0.04233 -0.02117,-0.0635 h -0.01058 v -0.01058 q 0.01058,-0.0635 0.01058,-0.127 0,-0.07408 0,-0.148167 0,-0.08467 0,-0.179916 0,-0.09525 -0.01058,-0.1905 v -0.41275 -0.306917 q 0.05292,-0.15875 0.0635,-0.3175 0.01058,-0.169333 0.01058,-0.34925 0,-0.07408 -0.01058,-0.137583 0,-0.07408 0,-0.148167 v -0.28575 q 0,-0.09525 0,-0.1905 0,-0.105833 0.01058,-0.201083 -0.04233,-0.15875 -0.105833,-0.338667 -0.05292,-0.179917 -0.148167,-0.338667 -0.22225,-0.137583 -0.41275,-0.169333 v -0.01058 h -0.01058 q -0.15875,-0.0635 -0.3175,-0.0635 -0.148167,0 -0.296334,0.04233 -0.148166,0.04233 -0.28575,0.127 -0.127,0.07408 -0.22225,0.15875 l -0.0635,0.0635 q -0.05292,0.04233 -0.09525,0.08467 -0.04233,0.04233 -0.0635,0.116416 l -0.01058,0.01058 q -0.02117,0 -0.04233,0.04233 -0.01058,0.04233 -0.05292,0.0635 z m 0.529167,1.04775 q -0.105834,-0.148167 -0.296334,-0.15875 -0.179916,-0.02117 -0.328083,0.0635 0.07408,0.05292 0.116417,0.127 0.02117,-0.02117 0.04233,-0.03175 0.03175,-0.02117 0.05292,0 0.148166,-0.01058 0.22225,0.09525 0.08467,0.09525 0.148166,0.201083 l 0.03175,0.0635 v 0.01058 q 0.08467,0.306916 0.116417,0.624416 0.04233,0.306917 0.0635,0.613834 0.02117,0.211666 0.03175,0.433916 0.02117,0.22225 0.05292,0.4445 l 0.01058,-0.01058 q 0.08467,-0.0635 0.105833,-0.137583 0.02117,-0.08467 0.02117,-0.169334 0,-0.04233 0,-0.07408 0,-0.04233 -0.01058,-0.09525 0,-0.04233 -0.01058,-0.07408 0,-0.04233 0,-0.09525 v -0.05292 q -0.0635,-0.179917 -0.08467,-0.370417 -0.02117,-0.1905 -0.03175,-0.391583 -0.02117,-0.264583 -0.0635,-0.529167 -0.04233,-0.264583 -0.1905,-0.486833 z m -1.619251,2.518833 q -0.09525,0.02117 -0.201083,0.04233 -0.09525,0.02117 -0.1905,0.03175 -0.01058,0.01058 -0.08467,0.116416 -0.07408,0.09525 -0.09525,0.127 0.0635,-0.01058 0.22225,-0.03175 0.169334,-0.01058 0.338667,-0.03175 0.1905,-0.02117 0.423333,-0.05292 0.05292,-0.01058 0.09525,0 0.04233,0 0.09525,0.01058 0.0635,0.01058 0.116417,0.01058 0.0635,0.01058 0.116417,-0.01058 0.01058,-0.01058 0.01058,-0.03175 0,-0.02117 -0.04233,-0.04233 l -0.04233,-0.04233 q -0.03175,-0.02117 -0.04233,-0.07408 -0.03175,-0.08467 -0.105833,-0.07408 v 0.01058 -0.01058 q -0.15875,-0.04233 -0.3175,-0.01058 -0.148167,0.02117 -0.296334,0.0635 z m 0.973667,-2.465916 q -0.05292,0.624416 -0.08467,1.132416 -0.02117,0.497417 -0.02117,1.04775 0.01058,0.01058 0.01058,0.03175 0,0.02117 -0.01058,0.05292 0,0.02117 0,0.04233 0,0.02117 -0.01058,0.05292 0,0.02117 0,0.04233 0,0.127 0.09525,0.169334 0.03175,-0.264584 0.03175,-0.560917 0,-0.15875 -0.01058,-0.306917 0,-0.15875 -0.01058,-0.3175 0.01058,-0.359833 0.03175,-0.635 0.01058,-0.243416 0.02117,-0.433916 0.01058,-0.1905 0.01058,-0.201084 -0.01058,-0.01058 -0.01058,-0.02117 0,-0.01058 -0.01058,-0.03175 0,-0.03175 -0.03175,-0.0635 z m 2.2225,2.360083 q -0.211666,-0.04233 -0.41275,-0.02117 -0.1905,0.02117 -0.370416,0.04233 -0.05292,0.04233 -0.116417,0.04233 -0.0635,0 -0.116417,0 -0.116416,0 -0.169333,0.01058 -0.02117,0.0635 -0.04233,0.09525 -0.01058,0.02117 -0.02117,0.05292 -0.01058,0.03175 -0.01058,0.05292 h 0.02117 q 0.28575,-0.04233 0.677334,-0.0635 0.391583,-0.03175 0.79375,0 0,-0.03175 -0.07408,-0.07408 -0.0635,-0.04233 -0.07408,-0.08467 -0.01058,-0.01058 -0.04233,-0.01058 -0.04233,0 -0.04233,-0.04233 z m -2.021416,-4.180417 q -0.02117,0.02117 -0.03175,0.05292 -0.01058,0.02117 -0.02117,0.02117 0,0.01058 0,0.137583 0.01058,0.116417 0.01058,0.1905 0.03175,-0.07408 0.05292,-0.137583 0.02117,-0.0635 0.02117,-0.127 0,-0.07408 -0.03175,-0.137584 z m 1.280583,-0.275167 q -0.08467,-0.01058 -0.211667,-0.01058 -0.127,0 -0.275166,0.04233 -0.148167,0.03175 -0.306917,0.116417 -0.15875,0.07408 -0.28575,0.232834 0.01058,0 0.01058,0.01058 0,0.05292 -0.02117,0.09525 -0.02117,0.03175 -0.04233,0.07408 0.02117,-0.02117 0.04233,-0.03175 0.02117,-0.02117 0.04233,-0.04233 0.0635,-0.0635 0.137583,-0.116417 0.07408,-0.0635 0.15875,-0.09525 0.306917,-0.148167 0.687917,-0.08467 0.338667,0.0635 0.66675,0.243417 0.08467,0.127 0.127,0.264584 0.05292,0.137583 0.105833,0.28575 0.01058,0.05292 0.02117,0.105833 0.01058,0.05292 0.03175,0.105833 -0.01058,0.09525 -0.02117,0.1905 0,0.08467 0,0.179917 0,0.07408 0,0.148167 0.01058,0.07408 0.01058,0.148166 0,0.08467 0,0.15875 0.01058,0.0635 0.01058,0.148167 0,0.0635 -0.01058,0.09525 l -0.01058,0.211667 q -0.02117,0.211666 -0.04233,0.423333 -0.02117,0.201083 -0.02117,0.41275 0,0.08467 0,0.169333 0.01058,0.07408 0.01058,0.15875 0.02117,0.05292 0.02117,0.116417 0,0.05292 0,0.105833 v 0.07408 0.07408 q 0,0.04233 0,0.08467 0,0.04233 0.01058,0.08467 v 0.04233 q 0,0.179916 0.15875,0.28575 0.02117,-0.08467 0.02117,-0.179917 0,-0.09525 0.01058,-0.179917 0,-0.201083 0.03175,-0.391583 l 0.02117,-0.34925 q 0.03175,-0.508 0.03175,-1.016 0,-0.423333 -0.04233,-0.8255 -0.04233,-0.41275 -0.15875,-0.814917 -0.0635,-0.05292 -0.105833,-0.116416 -0.03175,-0.07408 -0.05292,-0.148167 l -0.01058,-0.03175 q -0.264584,-0.34925 -0.751417,-0.455084 z" />
    </g>
  </g>
</svg>
