<svg width="128" height="128" viewBox="0 0 128 128" fill="none" xmlns="http://www.w3.org/2000/svg">
<rect width="128" height="128" rx="15" fill="white"/>
<path d="M16.3101 72V67.0166L22.7568 65.9092V20.5444L16.3101 19.437V14.4141H41.1479C47.1597 14.4141 51.853 15.7192 55.228 18.3296C58.6294 20.9136 60.3301 24.8027 60.3301 29.9971C60.3301 32.5547 59.5127 34.8486 57.8779 36.8789C56.2695 38.8828 54.1338 40.3726 51.4707 41.3481C54.9248 42.0864 57.6538 43.7871 59.6577 46.4502C61.6616 49.1133 62.6636 52.2114 62.6636 55.7446C62.6636 61.0181 60.9497 65.0522 57.522 67.8472C54.0942 70.6157 49.4536 72 43.6001 72H16.3101ZM30.5483 38.896H43.165C45.96 38.896 48.2144 38.0918 49.9282 36.4834C51.6685 34.8486 52.5386 32.6338 52.5386 29.8389C52.5386 26.7275 51.563 24.4072 49.6118 22.8779C47.6606 21.3223 44.8394 20.5444 41.1479 20.5444H30.5483V38.896ZM30.5483 65.9092H43.6001C47.1597 65.9092 49.915 65.0391 51.8662 63.2988C53.8438 61.5322 54.8325 59.0405 54.8325 55.8237C54.8325 52.4487 54.002 49.7988 52.3408 47.874C50.7061 45.9492 48.188 44.9868 44.7866 44.9868H30.5483V65.9092ZM81.6875 72V67.0166L88.1343 65.9092V20.3071H75.0825L73.9355 28.2964H68.082V14.4141H115.938V28.2964H110.164L108.978 20.3071H95.9258V65.9092L102.373 67.0166V72H81.6875Z" fill="#616161"/>
<path d="M7.56055 81.7622L14.1865 79.5161C15.5342 83.5591 17.8926 86.4603 21.2617 88.2197C24.5934 89.9792 28.73 90.8589 33.6714 90.8589H45.1826C49.1882 90.8589 52.6883 91.7012 55.6831 93.3857C58.6779 95.0703 60.9801 97.672 62.5898 101.191C64.1247 97.672 66.3895 95.0703 69.3843 93.3857C72.3791 91.7012 75.9167 90.8589 79.9971 90.8589H91.5645C96.5059 90.8589 100.661 89.9792 104.03 88.2197C107.437 86.4603 109.795 83.5591 111.105 79.5161L117.675 81.7622C115.616 89.0246 112.341 94.1906 107.849 97.2603C103.394 100.367 97.9658 101.921 91.5645 101.921H79.9971C75.7669 101.921 72.4914 102.875 70.1704 104.785C67.8869 106.694 66.7451 109.651 66.7451 113.657H58.4907C58.4907 109.651 57.3115 106.694 54.9531 104.785C52.6322 102.875 49.3753 101.921 45.1826 101.921H33.6714C27.3075 101.921 21.8794 100.367 17.3872 97.2603C12.895 94.1906 9.61947 89.0246 7.56055 81.7622Z" fill="#F37726"/>
</svg>
