<svg width="349" height="95" viewBox="0 0 349 95" fill="none" xmlns="http://www.w3.org/2000/svg">
<g clip-path="url(#clip0_101_11)">
<path d="M25.2646 87.5742C20.0596 86.1061 16.3493 83.7705 14.1338 80.5674C11.945 77.3643 10.8506 73.4938 10.8506 68.9561V60.748C10.8506 57.7585 10.1699 55.4362 8.80859 53.7812C7.44727 52.0996 5.35189 51.2588 2.52246 51.2588V45.373C5.35189 45.373 7.44727 44.5589 8.80859 42.9307C10.1699 41.2757 10.8506 38.9401 10.8506 35.9238V27.6758C10.8506 23.1113 11.945 19.2409 14.1338 16.0645C16.3493 12.8613 20.0596 10.5257 25.2646 9.05762L26.8662 13.7422C23.93 14.6764 21.8346 16.3581 20.5801 18.7871C19.3522 21.1895 18.7383 24.1523 18.7383 27.6758V35.9238C18.7383 38.7266 18.1777 41.1956 17.0566 43.3311C15.9355 45.4665 14.2406 47.1348 11.9717 48.3359C14.2406 49.5638 15.9355 51.2588 17.0566 53.4209C18.1777 55.5563 18.7383 57.9987 18.7383 60.748V68.9561C18.7383 72.4795 19.3522 75.429 20.5801 77.8047C21.8346 80.207 23.93 81.8887 26.8662 82.8496L25.2646 87.5742Z" fill="#F37726"/>
<path d="M192.246 67.4565C190.098 67.4565 188.388 66.8299 187.117 65.5767C185.863 64.3055 185.237 62.2824 185.237 59.5073V41.8633H180.645V37.9424H185.237V30.9331H190.527V37.9424H196.838V41.8633H190.527V59.5073C190.527 60.9038 190.805 61.9333 191.36 62.5957C191.915 63.2581 192.658 63.5894 193.589 63.5894C194.215 63.5894 194.914 63.5356 195.684 63.4282C196.453 63.3029 197.053 63.1955 197.483 63.106L198.208 66.5703C197.438 66.8031 196.489 67.009 195.361 67.188C194.251 67.367 193.213 67.4565 192.246 67.4565ZM200.92 67V63.6162L205.298 62.8643V29.2681L200.92 28.5161V25.1055H210.588V41.8096C211.591 40.4131 212.817 39.3299 214.268 38.5601C215.718 37.7902 217.329 37.4053 219.102 37.4053C222.217 37.4053 224.634 38.3363 226.353 40.1982C228.071 42.0602 228.931 44.9248 228.931 48.792V62.8643L233.308 63.6162V67H219.263V63.6162L223.64 62.8643V48.7383C223.64 46.3392 223.121 44.5667 222.083 43.4209C221.062 42.2751 219.531 41.7021 217.49 41.7021C216.04 41.7021 214.715 42.0513 213.516 42.7495C212.334 43.4299 211.358 44.3608 210.588 45.5425V62.8643L214.966 63.6162V67H200.92ZM249.744 67.564C247.058 67.564 244.722 66.9552 242.734 65.7378C240.747 64.5024 239.207 62.7926 238.115 60.6084C237.041 58.4242 236.504 55.8997 236.504 53.0352V51.8535C236.504 49.0964 237.068 46.6346 238.196 44.4683C239.342 42.284 240.854 40.5653 242.734 39.312C244.632 38.0409 246.7 37.4053 248.938 37.4053C251.552 37.4053 253.736 37.9424 255.491 39.0166C257.263 40.0908 258.597 41.6037 259.492 43.5552C260.387 45.4888 260.835 47.7715 260.835 50.4033V53.7065H241.982L241.902 53.8408C241.938 55.7028 242.26 57.3589 242.869 58.8091C243.495 60.2414 244.39 61.3693 245.554 62.1929C246.718 63.0164 248.114 63.4282 249.744 63.4282C251.534 63.4282 253.101 63.1776 254.443 62.6763C255.804 62.1571 256.977 61.4499 257.961 60.5547L260.029 63.9922C258.991 64.9948 257.612 65.8452 255.894 66.5435C254.193 67.2238 252.143 67.564 249.744 67.564ZM242.144 49.5708H255.544V48.8726C255.544 47.4761 255.294 46.2318 254.792 45.1396C254.309 44.0296 253.575 43.1613 252.59 42.5347C251.624 41.8901 250.406 41.5679 248.938 41.5679C247.756 41.5679 246.682 41.917 245.715 42.6152C244.749 43.2956 243.952 44.2266 243.325 45.4082C242.699 46.5898 242.287 47.9326 242.09 49.4365L242.144 49.5708ZM264.971 67V63.6162L269.348 62.8643V42.105L264.971 41.353V37.9424H274.102L274.451 41.729C275.382 40.3504 276.581 39.2852 278.049 38.5332C279.517 37.7812 281.218 37.4053 283.152 37.4053C285.085 37.4053 286.742 37.8529 288.12 38.748C289.517 39.6432 290.564 40.986 291.262 42.7764C292.175 41.1292 293.384 39.8223 294.888 38.8555C296.392 37.8887 298.146 37.4053 300.151 37.4053C303.123 37.4053 305.469 38.4258 307.188 40.4668C308.906 42.4899 309.766 45.5425 309.766 49.6245V62.8643L314.143 63.6162V67H300.071V63.6162L304.448 62.8643V49.5708C304.448 46.7062 303.956 44.6831 302.971 43.5015C301.986 42.3019 300.527 41.7021 298.594 41.7021C296.75 41.7021 295.264 42.3556 294.136 43.6626C293.026 44.9517 292.381 46.5809 292.202 48.5503V62.8643L296.58 63.6162V67H282.534V63.6162L286.912 62.8643V49.5708C286.912 46.8494 286.401 44.8621 285.381 43.6089C284.378 42.3377 282.919 41.7021 281.003 41.7021C279.392 41.7021 278.067 42.0334 277.029 42.6958C275.99 43.3582 275.194 44.2892 274.639 45.4888V62.8643L279.016 63.6162V67H264.971ZM330.901 67.564C328.215 67.564 325.879 66.9552 323.892 65.7378C321.904 64.5024 320.365 62.7926 319.272 60.6084C318.198 58.4242 317.661 55.8997 317.661 53.0352V51.8535C317.661 49.0964 318.225 46.6346 319.353 44.4683C320.499 42.284 322.012 40.5653 323.892 39.312C325.789 38.0409 327.857 37.4053 330.095 37.4053C332.709 37.4053 334.893 37.9424 336.648 39.0166C338.42 40.0908 339.754 41.6037 340.649 43.5552C341.545 45.4888 341.992 47.7715 341.992 50.4033V53.7065H323.14L323.059 53.8408C323.095 55.7028 323.417 57.3589 324.026 58.8091C324.653 60.2414 325.548 61.3693 326.711 62.1929C327.875 63.0164 329.272 63.4282 330.901 63.4282C332.691 63.4282 334.258 63.1776 335.601 62.6763C336.961 62.1571 338.134 61.4499 339.119 60.5547L341.187 63.9922C340.148 64.9948 338.77 65.8452 337.051 66.5435C335.35 67.2238 333.3 67.564 330.901 67.564ZM323.301 49.5708H336.702V48.8726C336.702 47.4761 336.451 46.2318 335.95 45.1396C335.466 44.0296 334.732 43.1613 333.748 42.5347C332.781 41.8901 331.563 41.5679 330.095 41.5679C328.914 41.5679 327.839 41.917 326.873 42.6152C325.906 43.2956 325.109 44.2266 324.482 45.4082C323.856 46.5898 323.444 47.9326 323.247 49.4365L323.301 49.5708Z" fill="#EFEFEF"/>
<path d="M42.4292 67.564C40.5314 67.564 38.8843 67.2059 37.4878 66.4897C36.0913 65.7557 34.9276 64.6815 33.9966 63.2671L33.5132 67H28.9478V29.2681L24.5703 28.5161V25.1055H34.2383V41.3799C35.1514 40.0908 36.2793 39.1061 37.6221 38.4258C38.9827 37.7454 40.5672 37.4053 42.3755 37.4053C44.7746 37.4053 46.8156 38.0588 48.4985 39.3657C50.1994 40.6548 51.4974 42.472 52.3926 44.8174C53.3057 47.1628 53.7622 49.8931 53.7622 53.0083V53.5723C53.7622 56.3652 53.3057 58.8091 52.3926 60.9038C51.4974 62.9985 50.1994 64.6367 48.4985 65.8184C46.8156 66.9821 44.7925 67.564 42.4292 67.564ZM41.0864 63.2671C43.575 63.2671 45.4191 62.3809 46.6187 60.6084C47.8361 58.8359 48.4448 56.4906 48.4448 53.5723V53.0083C48.4448 50.7703 48.1763 48.8099 47.6392 47.127C47.1021 45.4261 46.2874 44.1012 45.1953 43.1523C44.1032 42.1855 42.7157 41.7021 41.0327 41.7021C39.4035 41.7021 38.0249 42.096 36.897 42.8838C35.7869 43.6715 34.9007 44.7279 34.2383 46.0527V58.8896C34.9007 60.2324 35.7959 61.2977 36.9238 62.0854C38.0697 62.8732 39.4572 63.2671 41.0864 63.2671ZM71.9702 67.564C69.2847 67.564 66.9661 66.9373 65.0146 65.6841C63.0811 64.4129 61.5861 62.6673 60.5298 60.4473C59.4735 58.2093 58.9453 55.658 58.9453 52.7935V52.2026C58.9453 49.3381 59.4735 46.7957 60.5298 44.5757C61.5861 42.3377 63.0811 40.5832 65.0146 39.312C66.9661 38.0409 69.2668 37.4053 71.9165 37.4053C74.6021 37.4053 76.9116 38.0409 78.8452 39.312C80.7967 40.5832 82.3006 42.3288 83.3569 44.5488C84.4132 46.7689 84.9414 49.3201 84.9414 52.2026V52.7935C84.9414 55.6759 84.4132 58.2362 83.3569 60.4741C82.3006 62.6942 80.8057 64.4308 78.8721 65.6841C76.9385 66.9373 74.6379 67.564 71.9702 67.564ZM71.9702 63.4282C73.6532 63.4282 75.0586 62.9717 76.1865 62.0586C77.3324 61.1276 78.1917 59.8654 78.7646 58.272C79.3555 56.6606 79.6509 54.8345 79.6509 52.7935V52.2026C79.6509 50.1616 79.3555 48.3444 78.7646 46.751C78.1917 45.1396 77.3324 43.8774 76.1865 42.9644C75.0407 42.0334 73.6174 41.5679 71.9165 41.5679C70.2336 41.5679 68.8192 42.0334 67.6733 42.9644C66.5275 43.8774 65.6681 45.1396 65.0952 46.751C64.5223 48.3444 64.2358 50.1616 64.2358 52.2026V52.7935C64.2358 54.8345 64.5223 56.6606 65.0952 58.272C65.6681 59.8654 66.5275 61.1276 67.6733 62.0586C68.8371 62.9717 70.2694 63.4282 71.9702 63.4282ZM103.123 67.564C100.437 67.564 98.1185 66.9373 96.167 65.6841C94.2334 64.4129 92.7384 62.6673 91.6821 60.4473C90.6258 58.2093 90.0977 55.658 90.0977 52.7935V52.2026C90.0977 49.3381 90.6258 46.7957 91.6821 44.5757C92.7384 42.3377 94.2334 40.5832 96.167 39.312C98.1185 38.0409 100.419 37.4053 103.069 37.4053C105.754 37.4053 108.064 38.0409 109.998 39.312C111.949 40.5832 113.453 42.3288 114.509 44.5488C115.566 46.7689 116.094 49.3201 116.094 52.2026V52.7935C116.094 55.6759 115.566 58.2362 114.509 60.4741C113.453 62.6942 111.958 64.4308 110.024 65.6841C108.091 66.9373 105.79 67.564 103.123 67.564ZM103.123 63.4282C104.806 63.4282 106.211 62.9717 107.339 62.0586C108.485 61.1276 109.344 59.8654 109.917 58.272C110.508 56.6606 110.803 54.8345 110.803 52.7935V52.2026C110.803 50.1616 110.508 48.3444 109.917 46.751C109.344 45.1396 108.485 43.8774 107.339 42.9644C106.193 42.0334 104.77 41.5679 103.069 41.5679C101.386 41.5679 99.9715 42.0334 98.8257 42.9644C97.6799 43.8774 96.8205 45.1396 96.2476 46.751C95.6746 48.3444 95.3882 50.1616 95.3882 52.2026V52.7935C95.3882 54.8345 95.6746 56.6606 96.2476 58.272C96.8205 59.8654 97.6799 61.1276 98.8257 62.0586C99.9894 62.9717 101.422 63.4282 103.123 63.4282ZM119.37 67V63.6162L123.748 62.8643V29.2681L119.37 28.5161V25.1055H129.038V62.8643L133.416 63.6162V67H119.37ZM138.035 67V63.6162L140.989 63.2671L140.908 63.1597L132.502 52.3101L135.242 48.0938L146.978 62.9717L151.167 63.6162V67H138.035ZM128.662 58.5942L126.702 54.4316L139.324 41.8633L139.458 41.7021L136.343 41.353V37.9424H148.857V41.353L145.125 42.0513L128.662 58.5942Z" fill="#EFEFEF"/>
<path d="M151.683 87.5742L150.081 82.8496C152.964 81.8887 155.033 80.207 156.287 77.8047C157.542 75.429 158.169 72.4795 158.169 68.9561V60.748C158.169 57.8919 158.77 55.3962 159.971 53.2607C161.172 51.1253 163.027 49.4837 165.536 48.3359C163.027 47.2415 161.172 45.6266 159.971 43.4912C158.77 41.3558 158.169 38.8333 158.169 35.9238V27.6758C158.169 24.1523 157.542 21.1895 156.287 18.7871C155.033 16.3581 152.964 14.6764 150.081 13.7422L151.683 9.05762C156.861 10.5257 160.545 12.8613 162.733 16.0645C164.949 19.2409 166.057 23.1113 166.057 27.6758V35.9238C166.057 38.9401 166.737 41.2757 168.099 42.9307C169.46 44.5589 171.569 45.373 174.425 45.373V51.2588C171.569 51.2588 169.46 52.0996 168.099 53.7812C166.737 55.4362 166.057 57.7585 166.057 60.748V68.9561C166.057 73.4938 164.949 77.3643 162.733 80.5674C160.545 83.7705 156.861 86.1061 151.683 87.5742Z" fill="#F37726"/>
</g>
<defs>
<clipPath id="clip0_101_11">
<rect width="349" height="95" fill="white"/>
</clipPath>
</defs>
</svg>
